<?xml version="1.0" encoding="UTF-8" standalone="no"?>
<svg
   xmlns:dc="http://purl.org/dc/elements/1.1/"
   xmlns:cc="http://creativecommons.org/ns#"
   xmlns:rdf="http://www.w3.org/1999/02/22-rdf-syntax-ns#"
   xmlns:svg="http://www.w3.org/2000/svg"
   xmlns="http://www.w3.org/2000/svg"
   viewBox="0 0 317.44 261.44"
   height="261.44"
   width="317.44"
   xml:space="preserve"
   id="svg833"
   version="1.1"><metadata
     id="metadata839"><rdf:RDF><cc:Work
         rdf:about=""><dc:format>image/svg+xml</dc:format><dc:type
           rdf:resource="http://purl.org/dc/dcmitype/StillImage" /><dc:title></dc:title></cc:Work></rdf:RDF></metadata><defs
     id="defs837"><clipPath
       id="clipPath849"
       clipPathUnits="userSpaceOnUse"><path
         id="path847"
         clip-rule="evenodd"
         d="M 0,0 H 991.66656 V 815.43671 H 0 Z" /></clipPath><clipPath
       id="clipPath861"
       clipPathUnits="userSpaceOnUse"><path
         id="path859"
         clip-rule="evenodd"
         d="M 0,0 H 991.66656 V 809.46277 H 0 Z" /></clipPath><clipPath
       id="clipPath931"
       clipPathUnits="userSpaceOnUse"><path
         id="path929"
         clip-rule="evenodd"
         d="m 253.89053,642.19373 h 23.89557 v 32.85645 h -23.89557 z" /></clipPath><clipPath
       id="clipPath945"
       clipPathUnits="userSpaceOnUse"><path
         id="path943"
         clip-rule="evenodd"
         d="m 513.755,241.94275 h 41.81726 v 50.77811 H 513.755 Z" /></clipPath><clipPath
       id="clipPath965"
       clipPathUnits="userSpaceOnUse"><path
         id="path963"
         clip-rule="evenodd"
         d="m 603.3634,17.921684 h 41.81726 V 68.699791 H 603.3634 Z" /></clipPath><clipPath
       id="clipPath985"
       clipPathUnits="userSpaceOnUse"><path
         id="path983"
         clip-rule="evenodd"
         d="m 791.54108,436.09433 h 23.89557 v 50.77811 h -23.89557 z" /></clipPath><clipPath
       id="clipPath999"
       clipPathUnits="userSpaceOnUse"><path
         id="path997"
         clip-rule="evenodd"
         d="M 0,0 H 991.66656 V 809.46277 H 0 Z" /></clipPath><clipPath
       id="clipPath1017"
       clipPathUnits="userSpaceOnUse"><path
         id="path1015"
         clip-rule="evenodd"
         d="M 740.763,95.582321 H 866.21478 V 140.38653 H 740.763 Z" /></clipPath><clipPath
       id="clipPath1055"
       clipPathUnits="userSpaceOnUse"><path
         id="path1053"
         clip-rule="evenodd"
         d="m 651.15454,304.66864 h 125.45178 v 44.8042 H 651.15454 Z" /></clipPath><clipPath
       id="clipPath1093"
       clipPathUnits="userSpaceOnUse"><path
         id="path1091"
         clip-rule="evenodd"
         d="M 0,0 H 991.66656 V 809.46277 H 0 Z" /></clipPath><clipPath
       id="clipPath1107"
       clipPathUnits="userSpaceOnUse"><path
         id="path1105"
         clip-rule="evenodd"
         d="m 247.91664,477.91162 h 35.84337 v 32.85641 h -35.84337 z" /></clipPath></defs><g
     transform="matrix(0.31999998,0,0,0.31999998,0,6.5359999e-6)"
     id="g841"><g
       id="g843"><g
         clip-path="url(#clipPath849)"
         id="g845"><g
           transform="scale(2.9869475)"
           id="g851"><path
             id="path853"
             style="fill:#ffffff;fill-opacity:1;fill-rule:nonzero;stroke:none"
             d="M 0,0 H 332 V 273 H 0 Z" /></g></g></g><g
       id="g855"><g
         clip-path="url(#clipPath861)"
         id="g857"><g
           transform="matrix(2.9869475,0,0,2.9869475,1.4934738,1.4934738)"
           id="g863"><path
             id="path865"
             style="fill:#ffffff;fill-opacity:1;fill-rule:nonzero;stroke:none"
             d="m 129,139 h 80 v 30 h -80 z" /><path
             id="path867"
             style="fill:none;stroke:#000000;stroke-width:1;stroke-linecap:butt;stroke-linejoin:miter;stroke-miterlimit:10;stroke-dasharray:none;stroke-opacity:1"
             d="m 129,139 h 80 v 30 h -80 z" /><path
             id="path869"
             style="fill:none;stroke:#000000;stroke-width:1;stroke-linecap:butt;stroke-linejoin:miter;stroke-miterlimit:10;stroke-dasharray:none;stroke-opacity:1"
             d="M 9,189 H 329" /><path
             id="path871"
             style="fill:#ffffff;fill-opacity:1;fill-rule:nonzero;stroke:none"
             d="m 149,179 c -2e-5,0.6566 -0.0641,1.30692 -0.19217,1.95091 -0.1281,0.644 -0.31779,1.2693 -0.56906,1.87592 -0.25127,0.60663 -0.5593,1.18291 -0.92409,1.72885 -0.36479,0.54596 -0.77933,1.05109 -1.24362,1.51538 -0.46429,0.46428 -0.96942,0.87881 -1.51537,1.24361 -0.54596,0.36479 -1.12225,0.67283 -1.72888,0.92411 -0.60661,0.25127 -1.23192,0.44095 -1.87591,0.56905 -0.644,0.1281 -1.2943,0.19215 -1.9509,0.19217 -0.65662,-2e-5 -1.30692,-0.0641 -1.9509,-0.19217 -0.64399,-0.1281 -1.26932,-0.31779 -1.87594,-0.56906 -0.60663,-0.25127 -1.18293,-0.55931 -1.72889,-0.9241 -0.54594,-0.3648 -1.05107,-0.77933 -1.51534,-1.24361 -0.46432,-0.46429 -0.87885,-0.96942 -1.24364,-1.51537 -0.36479,-0.54594 -0.67284,-1.12223 -0.92411,-1.72886 -0.25126,-0.60662 -0.44094,-1.23192 -0.56904,-1.87592 C 129.06404,180.30692 129,179.6566 129,179 c 0,-0.65662 0.064,-1.30692 0.19214,-1.95091 0.1281,-0.644 0.31778,-1.26932 0.56904,-1.87595 0.25127,-0.60663 0.55932,-1.18292 0.92411,-1.72888 0.36479,-0.54594 0.77932,-1.05106 1.24364,-1.51535 0.46427,-0.46428 0.9694,-0.87883 1.51534,-1.24362 0.54596,-0.36479 1.12226,-0.67284 1.72889,-0.92411 0.60662,-0.25126 1.23195,-0.44094 1.87594,-0.56904 C 137.69308,169.06404 138.34338,169 139,169 c 0.6566,0 1.3069,0.064 1.9509,0.19214 0.64399,0.1281 1.2693,0.31778 1.87591,0.56904 0.60663,0.25127 1.18292,0.55932 1.72887,0.92411 0.54596,0.36479 1.05109,0.77934 1.51538,1.24362 0.46429,0.46429 0.87883,0.96942 1.24362,1.51536 0.36479,0.54595 0.67282,1.12224 0.92409,1.72887 0.25127,0.60663 0.44096,1.23195 0.56906,1.87595 0.1281,0.64399 0.19215,1.29429 0.19217,1.95091 z" /><path
             id="path873"
             style="fill:none;stroke:#000000;stroke-width:1;stroke-linecap:butt;stroke-linejoin:miter;stroke-miterlimit:10;stroke-dasharray:none;stroke-opacity:1"
             d="m 149,179 c -2e-5,0.6566 -0.0641,1.30692 -0.19217,1.95091 -0.1281,0.644 -0.31779,1.2693 -0.56906,1.87592 -0.25127,0.60663 -0.5593,1.18291 -0.92409,1.72885 -0.36479,0.54596 -0.77933,1.05109 -1.24362,1.51538 -0.46429,0.46428 -0.96942,0.87881 -1.51537,1.24361 -0.54596,0.36479 -1.12225,0.67283 -1.72888,0.92411 -0.60661,0.25127 -1.23192,0.44095 -1.87591,0.56905 -0.644,0.1281 -1.2943,0.19215 -1.9509,0.19217 -0.65662,-2e-5 -1.30692,-0.0641 -1.9509,-0.19217 -0.64399,-0.1281 -1.26932,-0.31779 -1.87594,-0.56906 -0.60663,-0.25127 -1.18293,-0.55931 -1.72889,-0.9241 -0.54594,-0.3648 -1.05107,-0.77933 -1.51534,-1.24361 -0.46432,-0.46429 -0.87885,-0.96942 -1.24364,-1.51537 -0.36479,-0.54594 -0.67284,-1.12223 -0.92411,-1.72886 -0.25126,-0.60662 -0.44094,-1.23192 -0.56904,-1.87592 C 129.06404,180.30692 129,179.6566 129,179 c 0,-0.65662 0.064,-1.30692 0.19214,-1.95091 0.1281,-0.644 0.31778,-1.26932 0.56904,-1.87595 0.25127,-0.60663 0.55932,-1.18292 0.92411,-1.72888 0.36479,-0.54594 0.77932,-1.05106 1.24364,-1.51535 0.46427,-0.46428 0.9694,-0.87883 1.51534,-1.24362 0.54596,-0.36479 1.12226,-0.67284 1.72889,-0.92411 0.60662,-0.25126 1.23195,-0.44094 1.87594,-0.56904 C 137.69308,169.06404 138.34338,169 139,169 c 0.6566,0 1.3069,0.064 1.9509,0.19214 0.64399,0.1281 1.2693,0.31778 1.87591,0.56904 0.60663,0.25127 1.18292,0.55932 1.72887,0.92411 0.54596,0.36479 1.05109,0.77934 1.51538,1.24362 0.46429,0.46429 0.87883,0.96942 1.24362,1.51536 0.36479,0.54595 0.67282,1.12224 0.92409,1.72887 0.25127,0.60663 0.44096,1.23195 0.56906,1.87595 0.1281,0.64399 0.19215,1.29429 0.19217,1.95091 z" /><path
             id="path875"
             style="fill:#ffffff;fill-opacity:1;fill-rule:nonzero;stroke:none"
             d="m 209,179 c 0,0.6566 -0.0641,1.30692 -0.19215,1.95091 -0.1281,0.644 -0.3178,1.2693 -0.56908,1.87592 -0.25128,0.60663 -0.55931,1.18291 -0.9241,1.72885 -0.3648,0.54596 -0.77935,1.05109 -1.24363,1.51538 -0.4643,0.46428 -0.96943,0.87881 -1.51538,1.24361 -0.54596,0.36479 -1.12225,0.67283 -1.72886,0.92411 -0.60663,0.25127 -1.23194,0.44095 -1.87592,0.56905 -0.644,0.1281 -1.29428,0.19215 -1.95088,0.19217 -0.65662,-2e-5 -1.30693,-0.0641 -1.95093,-0.19217 -0.64399,-0.1281 -1.2693,-0.31779 -1.87591,-0.56906 -0.60665,-0.25127 -1.18294,-0.55931 -1.72889,-0.9241 -0.54594,-0.3648 -1.05107,-0.77933 -1.51535,-1.24361 -0.46429,-0.46429 -0.87883,-0.96942 -1.24362,-1.51537 -0.3648,-0.54594 -0.67285,-1.12223 -0.92412,-1.72886 -0.25128,-0.60662 -0.44096,-1.23192 -0.56906,-1.87592 C 189.06403,180.30692 188.99998,179.6566 189,179 c -2e-5,-0.65662 0.064,-1.30692 0.19212,-1.95091 0.1281,-0.644 0.31778,-1.26932 0.56906,-1.87595 0.25127,-0.60663 0.55932,-1.18292 0.92411,-1.72888 0.36479,-0.54594 0.77934,-1.05106 1.24363,-1.51535 0.46428,-0.46428 0.96941,-0.87883 1.51537,-1.24362 0.54594,-0.36479 1.12222,-0.67284 1.72885,-0.92411 0.60663,-0.25126 1.23194,-0.44094 1.87593,-0.56904 C 197.69307,169.06404 198.34338,169 199,169 c 0.6566,0 1.30688,0.064 1.95087,0.19214 0.64399,0.1281 1.2693,0.31778 1.87593,0.56904 0.60661,0.25127 1.1829,0.55932 1.72886,0.92411 0.54595,0.36479 1.05108,0.77934 1.51538,1.24362 0.46428,0.46429 0.87883,0.96942 1.24363,1.51536 0.36479,0.54595 0.67282,1.12224 0.9241,1.72887 0.25128,0.60663 0.44098,1.23195 0.56908,1.87595 C 208.93594,177.69308 209,178.34338 209,179 Z" /><path
             id="path877"
             style="fill:none;stroke:#000000;stroke-width:1;stroke-linecap:butt;stroke-linejoin:miter;stroke-miterlimit:10;stroke-dasharray:none;stroke-opacity:1"
             d="m 209,179 c 0,0.6566 -0.0641,1.30692 -0.19215,1.95091 -0.1281,0.644 -0.3178,1.2693 -0.56908,1.87592 -0.25128,0.60663 -0.55931,1.18291 -0.9241,1.72885 -0.3648,0.54596 -0.77935,1.05109 -1.24363,1.51538 -0.4643,0.46428 -0.96943,0.87881 -1.51538,1.24361 -0.54596,0.36479 -1.12225,0.67283 -1.72886,0.92411 -0.60663,0.25127 -1.23194,0.44095 -1.87592,0.56905 -0.644,0.1281 -1.29428,0.19215 -1.95088,0.19217 -0.65662,-2e-5 -1.30693,-0.0641 -1.95093,-0.19217 -0.64399,-0.1281 -1.2693,-0.31779 -1.87591,-0.56906 -0.60665,-0.25127 -1.18294,-0.55931 -1.72889,-0.9241 -0.54594,-0.3648 -1.05107,-0.77933 -1.51535,-1.24361 -0.46429,-0.46429 -0.87883,-0.96942 -1.24362,-1.51537 -0.3648,-0.54594 -0.67285,-1.12223 -0.92412,-1.72886 -0.25128,-0.60662 -0.44096,-1.23192 -0.56906,-1.87592 C 189.06403,180.30692 188.99998,179.6566 189,179 c -2e-5,-0.65662 0.064,-1.30692 0.19212,-1.95091 0.1281,-0.644 0.31778,-1.26932 0.56906,-1.87595 0.25127,-0.60663 0.55932,-1.18292 0.92411,-1.72888 0.36479,-0.54594 0.77934,-1.05106 1.24363,-1.51535 0.46428,-0.46428 0.96941,-0.87883 1.51537,-1.24362 0.54594,-0.36479 1.12222,-0.67284 1.72885,-0.92411 0.60663,-0.25126 1.23194,-0.44094 1.87593,-0.56904 C 197.69307,169.06404 198.34338,169 199,169 c 0.6566,0 1.30688,0.064 1.95087,0.19214 0.64399,0.1281 1.2693,0.31778 1.87593,0.56904 0.60661,0.25127 1.1829,0.55932 1.72886,0.92411 0.54595,0.36479 1.05108,0.77934 1.51538,1.24362 0.46428,0.46429 0.87883,0.96942 1.24363,1.51536 0.36479,0.54595 0.67282,1.12224 0.9241,1.72887 0.25128,0.60663 0.44098,1.23195 0.56908,1.87595 C 208.93594,177.69308 209,178.34338 209,179 Z" /><path
             id="path879"
             style="fill:none;stroke:#000000;stroke-width:1;stroke-linecap:butt;stroke-linejoin:miter;stroke-miterlimit:10;stroke-dasharray:none;stroke-opacity:1"
             d="m 209,153.5 h 43.63" /><path
             id="path881"
             style="fill:#000000;fill-opacity:1;fill-rule:nonzero;stroke:none"
             d="m 257.88,153.5 -7,3.5 1.75,-3.5 -1.75,-3.5 z" /><path
             id="path883"
             style="fill:none;stroke:#000000;stroke-width:1;stroke-linecap:butt;stroke-linejoin:miter;stroke-miterlimit:10;stroke-dasharray:none;stroke-opacity:1"
             d="m 257.88,153.5 -7,3.5 1.75,-3.5 -1.75,-3.5 z" /><path
             id="path885"
             style="fill:none;stroke:#000000;stroke-width:1;stroke-linecap:butt;stroke-linejoin:miter;stroke-miterlimit:10;stroke-dasharray:none;stroke-opacity:1"
             d="M 9,269 V 79" /></g><g
           transform="scale(2.9869475)"
           id="g887"><path
             id="path889"
             style="fill:none;stroke:#000000;stroke-width:1;stroke-linecap:butt;stroke-linejoin:miter;stroke-miterlimit:10;stroke-dasharray:none;stroke-opacity:1"
             d="M 170.47,149.22 192.50999,78.769997" /></g><g
           transform="matrix(2.9869475,0,0,2.9869475,1.4934738,1.4934738)"
           id="g891"><path
             id="path893"
             style="fill:#ffffff;fill-opacity:1;fill-rule:nonzero;stroke:none"
             d="m 174,154 c -2e-5,0.66302 -0.12688,1.30083 -0.38062,1.91339 -0.25375,0.61256 -0.61505,1.15329 -1.08387,1.62215 -0.46886,0.46882 -1.00955,0.83011 -1.62212,1.08384 -0.61256,0.25374 -1.25037,0.3806 -1.91339,0.38062 -0.66304,-2e-5 -1.30086,-0.12688 -1.91342,-0.38062 -0.61257,-0.25373 -1.15328,-0.61502 -1.62212,-1.08384 -0.46886,-0.46886 -0.83014,-1.00959 -1.08388,-1.62215 C 164.12685,155.30083 163.99998,154.66302 164,154 c -2e-5,-0.66305 0.12685,-1.30087 0.38058,-1.91344 0.25374,-0.61256 0.61502,-1.15327 1.08388,-1.6221 0.46884,-0.46886 1.00955,-0.83014 1.62212,-1.08386 C 167.69914,149.12686 168.33696,149 169,149 c 0.66302,0 1.30083,0.12686 1.91339,0.3806 0.61257,0.25372 1.15326,0.615 1.62212,1.08386 0.46882,0.46883 0.83012,1.00954 1.08387,1.6221 0.25374,0.61257 0.3806,1.25039 0.38062,1.91344 z" /><path
             id="path895"
             style="fill:none;stroke:#000000;stroke-width:1;stroke-linecap:butt;stroke-linejoin:miter;stroke-miterlimit:10;stroke-dasharray:none;stroke-opacity:1"
             d="m 174,154 c -2e-5,0.66302 -0.12688,1.30083 -0.38062,1.91339 -0.25375,0.61256 -0.61505,1.15329 -1.08387,1.62215 -0.46886,0.46882 -1.00955,0.83011 -1.62212,1.08384 -0.61256,0.25374 -1.25037,0.3806 -1.91339,0.38062 -0.66304,-2e-5 -1.30086,-0.12688 -1.91342,-0.38062 -0.61257,-0.25373 -1.15328,-0.61502 -1.62212,-1.08384 -0.46886,-0.46886 -0.83014,-1.00959 -1.08388,-1.62215 C 164.12685,155.30083 163.99998,154.66302 164,154 c -2e-5,-0.66305 0.12685,-1.30087 0.38058,-1.91344 0.25374,-0.61256 0.61502,-1.15327 1.08388,-1.6221 0.46884,-0.46886 1.00955,-0.83014 1.62212,-1.08386 C 167.69914,149.12686 168.33696,149 169,149 c 0.66302,0 1.30083,0.12686 1.91339,0.3806 0.61257,0.25372 1.15326,0.615 1.62212,1.08386 0.46882,0.46883 0.83012,1.00954 1.08387,1.6221 0.25374,0.61257 0.3806,1.25039 0.38062,1.91344 z" /><path
             id="path897"
             style="fill:#ffffff;fill-opacity:1;fill-rule:nonzero;stroke:none"
             d="m 199,74 c -2e-5,0.663033 -0.12689,1.300835 -0.38063,1.913406 -0.25374,0.612572 -0.61504,1.153275 -1.08386,1.622124 -0.46886,0.468834 -1.00955,0.830124 -1.62212,1.083855 C 195.30083,78.873123 194.66302,78.999992 194,79 c -0.66306,-8e-6 -1.30087,-0.126877 -1.91344,-0.380615 -0.61256,-0.253731 -1.15326,-0.615021 -1.6221,-1.083855 -0.46885,-0.468849 -0.83014,-1.009552 -1.08388,-1.622124 C 189.12685,75.300835 188.99998,74.663033 189,74 c -2e-5,-0.663048 0.12685,-1.30085 0.38058,-1.913422 0.25374,-0.612571 0.61503,-1.153282 1.08388,-1.622116 0.46884,-0.468841 1.00954,-0.830131 1.6221,-1.08387 C 192.69913,69.126862 193.33694,69 194,69 c 0.66302,0 1.30083,0.126862 1.91339,0.380592 0.61257,0.253739 1.15326,0.615029 1.62212,1.08387 0.46882,0.468834 0.83012,1.009545 1.08386,1.622116 C 198.87311,72.69915 198.99998,73.336952 199,74 Z" /><path
             id="path899"
             style="fill:none;stroke:#000000;stroke-width:1;stroke-linecap:butt;stroke-linejoin:miter;stroke-miterlimit:10;stroke-dasharray:none;stroke-opacity:1"
             d="m 199,74 c -2e-5,0.663033 -0.12689,1.300835 -0.38063,1.913406 -0.25374,0.612572 -0.61504,1.153275 -1.08386,1.622124 -0.46886,0.468834 -1.00955,0.830124 -1.62212,1.083855 C 195.30083,78.873123 194.66302,78.999992 194,79 c -0.66306,-8e-6 -1.30087,-0.126877 -1.91344,-0.380615 -0.61256,-0.253731 -1.15326,-0.615021 -1.6221,-1.083855 -0.46885,-0.468849 -0.83014,-1.009552 -1.08388,-1.622124 C 189.12685,75.300835 188.99998,74.663033 189,74 c -2e-5,-0.663048 0.12685,-1.30085 0.38058,-1.913422 0.25374,-0.612571 0.61503,-1.153282 1.08388,-1.622116 0.46884,-0.468841 1.00954,-0.830131 1.6221,-1.08387 C 192.69913,69.126862 193.33694,69 194,69 c 0.66302,0 1.30083,0.126862 1.91339,0.380592 0.61257,0.253739 1.15326,0.615029 1.62212,1.08387 0.46882,0.468834 0.83012,1.009545 1.08386,1.622116 C 198.87311,72.69915 198.99998,73.336952 199,74 Z" /></g><g
           transform="scale(2.9869475)"
           id="g901"><path
             id="path903"
             style="fill:none;stroke:#000000;stroke-width:1;stroke-linecap:butt;stroke-linejoin:miter;stroke-miterlimit:10;stroke-dasharray:none;stroke-opacity:1"
             d="M 229,9 196.37,69.599998" /></g><g
           transform="matrix(2.9869475,0,0,2.9869475,1.4934738,1.4934738)"
           id="g905"><path
             id="path907"
             style="fill:#000000;fill-opacity:1;fill-rule:nonzero;stroke:none"
             d="m 194.25999,1 v 3 h -1 V 1 m 1,6 v 3 h -1 V 7 m 1,6 v 3 h -1 v -3 m 1,6 v 3 h -1 v -3 m 1,6 v 3 h -1 v -3 m 1,6 v 3 h -1 v -3 m 1,6 v 3 h -1 v -3 m 1,6 v 3 h -1 v -3 m 1,6 v 3 h -1 v -3 m 1,6 v 3 h -1 v -3 m 1,6 v 3 h -1 v -3 m 1,6 v 2 h -1 v -2" /><path
             id="path909"
             style="fill:#000000;fill-opacity:1;fill-rule:nonzero;stroke:none"
             d="m 169.25999,78.999199 0.005,3 -1,0.0016 -0.005,-3 m 1.0096,5.99839 0.005,2.999993 -1,0.0016 -0.005,-2.999993 m 1.0096,5.998391 0.005,3 -1,0.0016 -0.005,-3 m 1.0096,5.99839 0.005,2.999992 -1,0.0016 -0.005,-2.99999 m 1.00961,5.99839 0.005,3 -1,0.002 -0.005,-3 m 1.0096,5.99839 0.005,2.99999 -1,0.002 -0.005,-2.99999 m 1.0096,5.99839 0.005,3 -1,0.002 -0.005,-3 m 1.00959,5.9984 0.005,2.99999 -1,0.002 -0.005,-2.99999 m 1.0096,5.99839 0.005,3.00001 -1,0.002 -0.005,-2.99999 m 1.0096,5.99841 0.005,2.99998 -1,0.002 -0.005,-2.99999 m 1.00961,5.9984 0.005,3 -1,0.002 -0.005,-3 m 1.0096,5.99839 0.005,3 -1,0.002 -0.005,-3 m 1.0096,5.99841 0.005,3 -1,0.002 -0.005,-3 m 1.0096,5.99841 0.005,3 -1,0.002 -0.005,-3 m 1.00959,5.9984 0.005,3 -1,0.002 -0.005,-3 m 1.0096,5.99839 0.005,3 -1,0.002 -0.005,-3 m 1.00961,5.99841 0.005,3 -1,0.002 -0.005,-3 m 1.0096,5.99841 0.005,3 -1,0.002 -0.005,-3 m 1.0096,5.9984 0.005,3 -1,0.002 -0.005,-3 m 1.0096,5.99839 0.005,3 -1,0.002 -0.005,-3 m 1.0096,5.99841 0.005,3 -1,0.002 -0.005,-3 m 1.00959,5.99841 0.005,2.99999 -1,0.002 -0.005,-2.99999 m 1.00962,5.9984 0.005,3 -1,0.002 -0.005,-3 m 1.00959,5.99841 0.005,2.99998 -1,0.002 -0.005,-2.99998 m 1.0096,5.99839 0.005,3 -1,0.002 -0.005,-3 m 1.0096,5.99841 v 1.9e-4 l -1,0.002 v -1.8e-4" /><path
             id="path911"
             style="fill:none;stroke:#000000;stroke-width:1;stroke-linecap:butt;stroke-linejoin:miter;stroke-miterlimit:10;stroke-dasharray:none;stroke-opacity:1"
             d="m 193,24.01 c 8.39999,-0.17 16.71001,1.789999 24.16,5.680001" /><path
             id="path913"
             style="fill:none;stroke:#000000;stroke-width:1;stroke-linecap:butt;stroke-linejoin:miter;stroke-miterlimit:10;stroke-dasharray:none;stroke-opacity:1"
             d="m 168,99.010002 c 6.08,-0.120003 12.13,0.869995 17.85001,2.909998" /><path
             id="path915"
             style="fill:none;stroke:#000000;stroke-width:1;stroke-linecap:butt;stroke-linejoin:miter;stroke-miterlimit:10;stroke-dasharray:none;stroke-opacity:1"
             d="M 15.37,209 H 162.63" /><path
             id="path917"
             style="fill:#000000;fill-opacity:1;fill-rule:nonzero;stroke:none"
             d="m 10.12,209 7.000001,-3.5 -1.750001,3.5 1.750001,3.5 z" /><path
             id="path919"
             style="fill:none;stroke:#000000;stroke-width:1;stroke-linecap:butt;stroke-linejoin:miter;stroke-miterlimit:10;stroke-dasharray:none;stroke-opacity:1"
             d="m 10.12,209 7.000001,-3.5 -1.750001,3.5 1.750001,3.5 z" /><path
             id="path921"
             style="fill:#000000;fill-opacity:1;fill-rule:nonzero;stroke:none"
             d="m 167.88,209 -7,3.5 1.75,-3.5 -1.75,-3.5 z" /><path
             id="path923"
             style="fill:none;stroke:#000000;stroke-width:1;stroke-linecap:butt;stroke-linejoin:miter;stroke-miterlimit:10;stroke-dasharray:none;stroke-opacity:1"
             d="m 167.88,209 -7,3.5 1.75,-3.5 -1.75,-3.5 z" /></g></g></g><g
       id="g925"><g
         clip-path="url(#clipPath931)"
         id="g927"><g
           transform="matrix(0.04173901,0,0,-0.04766231,253.89053,668.42133)"
           id="g933"><path
             id="path935"
             style="fill:#000000;fill-opacity:1;fill-rule:nonzero;stroke:none"
             d="m 52,289 c 4.666668,28 22.666664,60.33334 54,97 31.33333,36.66666 70,55.33334 116,56 23.33333,0 44.66666,-6 64,-18 19.33334,-12 33.66666,-27 43,-45 28,42 61.66666,63 101,63 24.66666,0 46,-7.33334 64,-22 18,-14.66666 27.33331,-34.33334 28,-59 0,-19.33334 -4.66669,-35 -14,-47 -9.33334,-12 -18.33334,-19.33334 -27,-22 -8.66666,-2.66666 -16.33334,-4 -23,-4 -12.66666,0 -23,3.66666 -31,11 -8,7.33334 -12,17 -12,29 0,30.66666 16.66666,51.66666 50,63 -7.33334,8.66666 -20.66666,13 -40,13 -8.66666,0 -15,-0.66666 -19,-2 -25.33334,-10.66666 -44,-32.66666 -56,-66 -40,-147.33334 -60,-233.33333 -60,-258 0,-18.666668 5.33334,-32 16,-40 10.66666,-8 22.33334,-12 35,-12 24.66666,0 49,11 73,33 24,22 40.33334,49 49,81 2,6.66667 4,10.33333 6,11 2,0.66667 7.33334,1.33333 16,2 h 4 c 10,0 15,-2.66667 15,-8 0,-0.66667 -0.66666,-4.33333 -2,-11 C 491.33334,96 470.66666,62.333336 440,33 409.33334,3.666666 373.66666,-11 333,-11 286.33334,-11 251,10 227,52 199.66667,10.666664 168.33334,-10 133,-10 h -6 C 94.333328,-10 71,-1.333334 57,16 43,33.333336 35.666668,51.666664 35,71 c 0,21.333336 6.333332,38.66666 19,52 12.666664,13.33333 27.666664,20 45,20 28.66667,0 43,-14 43,-42 C 142,87.666664 138,76 130,66 122,56 114.33334,49.333332 107,46 99.666664,42.666668 95.333336,41 94,41 l -3,-1 c 0,-0.666668 2,-2 6,-4 4,-2 9.33334,-4.333334 16,-7 6.66666,-2.666666 13,-3.666666 19,-3 24,0 44.66667,15 62,45 6,10.666664 13.66667,33.33333 23,68 9.33333,34.66667 18.66667,70.66666 28,108 9.33333,37.33334 14.66666,59.33334 16,66 3.33334,18 5,31 5,39 0,18.66666 -5,32 -15,40 -10,8 -21.33333,12 -34,12 -26.66667,0 -51.66667,-10.66666 -75,-32 -23.33334,-21.33334 -39.66666,-48.66666 -49,-82 -1.333336,-6 -3,-9.33334 -5,-10 -2,-0.66666 -7.333336,-1.33334 -16,-2 H 58 c -4,4 -6,7.66666 -6,11 z" /><path
             id="path937"
             style="fill:none;stroke:#000000;stroke-width:1;stroke-linecap:butt;stroke-linejoin:miter;stroke-miterlimit:10;stroke-dasharray:none;stroke-opacity:0.0118"
             d="m 52,289 c 4.666668,28 22.666664,60.33334 54,97 31.33333,36.66666 70,55.33334 116,56 23.33333,0 44.66666,-6 64,-18 19.33334,-12 33.66666,-27 43,-45 28,42 61.66666,63 101,63 24.66666,0 46,-7.33334 64,-22 18,-14.66666 27.33331,-34.33334 28,-59 0,-19.33334 -4.66669,-35 -14,-47 -9.33334,-12 -18.33334,-19.33334 -27,-22 -8.66666,-2.66666 -16.33334,-4 -23,-4 -12.66666,0 -23,3.66666 -31,11 -8,7.33334 -12,17 -12,29 0,30.66666 16.66666,51.66666 50,63 -7.33334,8.66666 -20.66666,13 -40,13 -8.66666,0 -15,-0.66666 -19,-2 -25.33334,-10.66666 -44,-32.66666 -56,-66 -40,-147.33334 -60,-233.33333 -60,-258 0,-18.666668 5.33334,-32 16,-40 10.66666,-8 22.33334,-12 35,-12 24.66666,0 49,11 73,33 24,22 40.33334,49 49,81 2,6.66667 4,10.33333 6,11 2,0.66667 7.33334,1.33333 16,2 h 4 c 10,0 15,-2.66667 15,-8 0,-0.66667 -0.66666,-4.33333 -2,-11 C 491.33334,96 470.66666,62.333336 440,33 409.33334,3.666666 373.66666,-11 333,-11 286.33334,-11 251,10 227,52 199.66667,10.666664 168.33334,-10 133,-10 h -6 C 94.333328,-10 71,-1.333334 57,16 43,33.333336 35.666668,51.666664 35,71 c 0,21.333336 6.333332,38.66666 19,52 12.666664,13.33333 27.666664,20 45,20 28.66667,0 43,-14 43,-42 C 142,87.666664 138,76 130,66 122,56 114.33334,49.333332 107,46 99.666664,42.666668 95.333336,41 94,41 l -3,-1 c 0,-0.666668 2,-2 6,-4 4,-2 9.33334,-4.333334 16,-7 6.66666,-2.666666 13,-3.666666 19,-3 24,0 44.66667,15 62,45 6,10.666664 13.66667,33.33333 23,68 9.33333,34.66667 18.66667,70.66666 28,108 9.33333,37.33334 14.66666,59.33334 16,66 3.33334,18 5,31 5,39 0,18.66666 -5,32 -15,40 -10,8 -21.33333,12 -34,12 -26.66667,0 -51.66667,-10.66666 -75,-32 -23.33334,-21.33334 -39.66666,-48.66666 -49,-82 -1.333336,-6 -3,-9.33334 -5,-10 -2,-0.66666 -7.333336,-1.33334 -16,-2 H 58 c -4,4 -6,7.66666 -6,11 z" /></g></g></g><g
       id="g939"><g
         clip-path="url(#clipPath945)"
         id="g941"><g
           transform="matrix(0.04528446,0,0,-0.04614514,513.7558,279.98019)"
           id="g947"><path
             id="path949"
             style="fill:#000000;fill-opacity:1;fill-rule:nonzero;stroke:none"
             d="m 35,200 c 0,68 13,139.66666 39,215 26,75.33334 61.33333,140.33331 106,195 44.66667,54.66669 91,86 139,94 0.66666,0 3.33334,0 8,0 4.66666,0 8.66666,0.33331 12,1 36,-2.66669 64,-19 84,-49 26,-40 39,-93.66669 39,-161 C 462,418.33331 447,340.33334 417,261 387,181.66666 348.66666,116.66667 302,66 255.33333,15.333332 210.66667,-10 168,-10 h -7 c -24,0 -44.66666,6.666666 -62,20 -17.333336,13.333334 -30.333336,31 -39,53 -8.666668,22 -15,44.33333 -19,67 -4,22.66667 -6,46 -6,70 z m 348,366 c 0,68 -17.66666,102 -53,102 -24,0 -47.33334,-15 -70,-45 -22.66667,-30 -41.33333,-64 -56,-102 -14.66667,-38 -26,-71.33334 -34,-100 -8,-28.66666 -12.33333,-45.33334 -13,-50 32.66667,-0.66666 65,-1 97,-1 l 97,1 c 0.66666,0.66666 3.33334,11.66666 8,33 4.66666,21.33334 10,48 16,80 6,32 8.66666,59.33331 8,82 z M 113,132 c 0,-70.666672 17.66666,-106 53,-106 10,0 20.66667,3.333332 32,10 11.33333,6.666668 25,19.333332 41,38 16,18.666672 32,47.66666 48,87 16,39.33334 32,88 48,146 l 5,17 H 145 c 0,-2 -3,-14.66666 -9,-38 -6,-23.33334 -11.33334,-49.33333 -16,-78 -4.66666,-28.66667 -7,-54 -7,-76 z" /><path
             id="path951"
             style="fill:none;stroke:#000000;stroke-width:1;stroke-linecap:butt;stroke-linejoin:miter;stroke-miterlimit:10;stroke-dasharray:none;stroke-opacity:0.0118"
             d="m 35,200 c 0,68 13,139.66666 39,215 26,75.33334 61.33333,140.33331 106,195 44.66667,54.66669 91,86 139,94 0.66666,0 3.33334,0 8,0 4.66666,0 8.66666,0.33331 12,1 36,-2.66669 64,-19 84,-49 26,-40 39,-93.66669 39,-161 C 462,418.33331 447,340.33334 417,261 387,181.66666 348.66666,116.66667 302,66 255.33333,15.333332 210.66667,-10 168,-10 h -7 c -24,0 -44.66666,6.666666 -62,20 -17.333336,13.333334 -30.333336,31 -39,53 -8.666668,22 -15,44.33333 -19,67 -4,22.66667 -6,46 -6,70 z m 348,366 c 0,68 -17.66666,102 -53,102 -24,0 -47.33334,-15 -70,-45 -22.66667,-30 -41.33333,-64 -56,-102 -14.66667,-38 -26,-71.33334 -34,-100 -8,-28.66666 -12.33333,-45.33334 -13,-50 32.66667,-0.66666 65,-1 97,-1 l 97,1 c 0.66666,0.66666 3.33334,11.66666 8,33 4.66666,21.33334 10,48 16,80 6,32 8.66666,59.33331 8,82 z M 113,132 c 0,-70.666672 17.66666,-106 53,-106 10,0 20.66667,3.333332 32,10 11.33333,6.666668 25,19.333332 41,38 16,18.666672 32,47.66666 48,87 16,39.33334 32,88 48,146 l 5,17 H 145 c 0,-2 -3,-14.66666 -9,-38 -6,-23.33334 -11.33334,-49.33333 -16,-78 -4.66666,-28.66667 -7,-54 -7,-76 z" /></g><g
           transform="matrix(0.03201612,0,0,-0.03262461,534.9942,286.90195)"
           id="g953"><path
             id="path955"
             style="fill:#000000;fill-opacity:1;fill-rule:nonzero;stroke:none"
             d="m 213,578 -13,-5 c -9.33333,-3.33331 -22.66667,-6.66669 -40,-10 -17.33333,-3.33331 -36.66666,-5.66669 -58,-7 H 83 v 46 h 19 c 31.33333,1.33331 60.33333,6.33331 87,15 26.66667,8.66669 45.33333,16.66669 56,24 10.66667,7.33331 20,14.66669 28,22 1.33334,2 5.33334,3 12,3 6,0 11.66666,-2 17,-6 V 361 l 1,-300 c 4.66666,-4.666668 8.66666,-7.666668 12,-9 3.33334,-1.333332 11.33334,-2.666668 24,-4 12.66666,-1.333332 33.33334,-2 62,-2 h 26 V 0 H 416 C 402,2 349,3 257,3 166.33333,3 114,2 100,0 H 88 v 46 h 26 c 14.66667,0 27.33333,0 38,0 10.66667,0 19,0.333332 25,1 6,0.666668 11.33333,1.666668 16,3 4.66667,1.333332 7.33333,2 8,2 0.66667,0 2.66667,1.666668 6,5 3.33333,3.333332 5.33333,4.666668 6,4 z" /><path
             id="path957"
             style="fill:none;stroke:#000000;stroke-width:1;stroke-linecap:butt;stroke-linejoin:miter;stroke-miterlimit:10;stroke-dasharray:none;stroke-opacity:0.00779999"
             d="m 213,578 -13,-5 c -9.33333,-3.33331 -22.66667,-6.66669 -40,-10 -17.33333,-3.33331 -36.66666,-5.66669 -58,-7 H 83 v 46 h 19 c 31.33333,1.33331 60.33333,6.33331 87,15 26.66667,8.66669 45.33333,16.66669 56,24 10.66667,7.33331 20,14.66669 28,22 1.33334,2 5.33334,3 12,3 6,0 11.66666,-2 17,-6 V 361 l 1,-300 c 4.66666,-4.666668 8.66666,-7.666668 12,-9 3.33334,-1.333332 11.33334,-2.666668 24,-4 12.66666,-1.333332 33.33334,-2 62,-2 h 26 V 0 H 416 C 402,2 349,3 257,3 166.33333,3 114,2 100,0 H 88 v 46 h 26 c 14.66667,0 27.33333,0 38,0 10.66667,0 19,0.333332 25,1 6,0.666668 11.33333,1.666668 16,3 4.66667,1.333332 7.33333,2 8,2 0.66667,0 2.66667,1.666668 6,5 3.33333,3.333332 5.33333,4.666668 6,4 z" /></g></g></g><g
       id="g959"><g
         clip-path="url(#clipPath965)"
         id="g961"><g
           transform="matrix(0.04528446,0,0,-0.04614514,603.3642,55.959118)"
           id="g967"><path
             id="path969"
             style="fill:#000000;fill-opacity:1;fill-rule:nonzero;stroke:none"
             d="m 35,200 c 0,68 13,139.66666 39,215 26,75.33334 61.33333,140.33331 106,195 44.66667,54.66669 91,86 139,94 0.66666,0 3.33334,0 8,0 4.66666,0 8.66666,0.33331 12,1 36,-2.66669 64,-19 84,-49 26,-40 39,-93.66669 39,-161 C 462,418.33331 447,340.33334 417,261 387,181.66666 348.66666,116.66667 302,66 255.33333,15.333332 210.66667,-10 168,-10 h -7 c -24,0 -44.66666,6.666666 -62,20 -17.333336,13.333334 -30.333336,31 -39,53 -8.666668,22 -15,44.33333 -19,67 -4,22.66667 -6,46 -6,70 z m 348,366 c 0,68 -17.66666,102 -53,102 -24,0 -47.33334,-15 -70,-45 -22.66667,-30 -41.33333,-64 -56,-102 -14.66667,-38 -26,-71.33334 -34,-100 -8,-28.66666 -12.33333,-45.33334 -13,-50 32.66667,-0.66666 65,-1 97,-1 l 97,1 c 0.66666,0.66666 3.33334,11.66666 8,33 4.66666,21.33334 10,48 16,80 6,32 8.66666,59.33331 8,82 z M 113,132 c 0,-70.666672 17.66666,-106 53,-106 10,0 20.66667,3.333332 32,10 11.33333,6.666668 25,19.333332 41,38 16,18.666672 32,47.66666 48,87 16,39.33334 32,88 48,146 l 5,17 H 145 c 0,-2 -3,-14.66666 -9,-38 -6,-23.33334 -11.33334,-49.33333 -16,-78 -4.66666,-28.66667 -7,-54 -7,-76 z" /><path
             id="path971"
             style="fill:none;stroke:#000000;stroke-width:1;stroke-linecap:butt;stroke-linejoin:miter;stroke-miterlimit:10;stroke-dasharray:none;stroke-opacity:0.0118"
             d="m 35,200 c 0,68 13,139.66666 39,215 26,75.33334 61.33333,140.33331 106,195 44.66667,54.66669 91,86 139,94 0.66666,0 3.33334,0 8,0 4.66666,0 8.66666,0.33331 12,1 36,-2.66669 64,-19 84,-49 26,-40 39,-93.66669 39,-161 C 462,418.33331 447,340.33334 417,261 387,181.66666 348.66666,116.66667 302,66 255.33333,15.333332 210.66667,-10 168,-10 h -7 c -24,0 -44.66666,6.666666 -62,20 -17.333336,13.333334 -30.333336,31 -39,53 -8.666668,22 -15,44.33333 -19,67 -4,22.66667 -6,46 -6,70 z m 348,366 c 0,68 -17.66666,102 -53,102 -24,0 -47.33334,-15 -70,-45 -22.66667,-30 -41.33333,-64 -56,-102 -14.66667,-38 -26,-71.33334 -34,-100 -8,-28.66666 -12.33333,-45.33334 -13,-50 32.66667,-0.66666 65,-1 97,-1 l 97,1 c 0.66666,0.66666 3.33334,11.66666 8,33 4.66666,21.33334 10,48 16,80 6,32 8.66666,59.33331 8,82 z M 113,132 c 0,-70.666672 17.66666,-106 53,-106 10,0 20.66667,3.333332 32,10 11.33333,6.666668 25,19.333332 41,38 16,18.666672 32,47.66666 48,87 16,39.33334 32,88 48,146 l 5,17 H 145 c 0,-2 -3,-14.66666 -9,-38 -6,-23.33334 -11.33334,-49.33333 -16,-78 -4.66666,-28.66667 -7,-54 -7,-76 z" /></g><g
           transform="matrix(0.03201612,0,0,-0.03262461,624.6026,62.88089)"
           id="g973"><path
             id="path975"
             style="fill:#000000;fill-opacity:1;fill-rule:nonzero;stroke:none"
             d="m 109,429 c -18,0 -32.333336,6 -43,18 -10.666668,12 -16,26.66666 -16,44 0,47.33331 17.666664,88.33331 53,123 35.33334,34.66669 79.33333,52 132,52 60.66666,0 111.33334,-18.66669 152,-56 40.66666,-37.33331 61.33334,-85.66669 62,-145 0,-28.66666 -6.66666,-56 -20,-82 -13.33334,-26 -29.33334,-48.66666 -48,-68 -18.66666,-19.33334 -45.33334,-44 -80,-74 -24,-20.66667 -57.33333,-51.33333 -100,-92 l -59,-56 76,-1 c 104.66669,0 160.33334,1.666664 167,5 4.66666,1.333336 12.66666,31 24,89 v 3 h 40 v -3 C 448.33334,184 444,153.66667 436,95 428,36.333332 423,5.666667 421,3 V 0 H 50 v 19 12 c 0,4.666668 2,9.666668 6,15 4,5.333332 14,17 30,35 19.33334,21.33334 36,40 50,56 6,6.66667 17.33333,19 34,37 16.66667,18 28,30.33333 34,37 6,6.66667 15.66667,17.66667 29,33 13.33333,15.33334 22.66667,26.66666 28,34 5.33334,7.33334 13,17.33334 23,30 10,12.66666 17,23.33334 21,32 4,8.66666 9,18.33334 15,29 6,10.66666 10.33334,21.33334 13,32 2.66666,10.66666 5,20.66666 7,30 2,9.33334 3,20.33334 3,33 0,42 -11.33334,78.33331 -34,109 -22.66666,30.66669 -55,46 -97,46 -22,0 -41.33333,-5.66669 -58,-17 -16.66667,-11.33331 -28.33334,-22.33331 -35,-33 -6.66666,-10.66669 -10,-17 -10,-19 0,-0.66669 1.66666,-1 5,-1 12,0 24.33333,-4.66669 37,-14 12.66667,-9.33331 19,-24.66666 19,-46 0,-16.66666 -5.33333,-30.66666 -16,-42 -10.66667,-11.33334 -25.66667,-17.33334 -45,-18 z" /><path
             id="path977"
             style="fill:none;stroke:#000000;stroke-width:1;stroke-linecap:butt;stroke-linejoin:miter;stroke-miterlimit:10;stroke-dasharray:none;stroke-opacity:0.00779999"
             d="m 109,429 c -18,0 -32.333336,6 -43,18 -10.666668,12 -16,26.66666 -16,44 0,47.33331 17.666664,88.33331 53,123 35.33334,34.66669 79.33333,52 132,52 60.66666,0 111.33334,-18.66669 152,-56 40.66666,-37.33331 61.33334,-85.66669 62,-145 0,-28.66666 -6.66666,-56 -20,-82 -13.33334,-26 -29.33334,-48.66666 -48,-68 -18.66666,-19.33334 -45.33334,-44 -80,-74 -24,-20.66667 -57.33333,-51.33333 -100,-92 l -59,-56 76,-1 c 104.66669,0 160.33334,1.666664 167,5 4.66666,1.333336 12.66666,31 24,89 v 3 h 40 v -3 C 448.33334,184 444,153.66667 436,95 428,36.333332 423,5.666667 421,3 V 0 H 50 v 19 12 c 0,4.666668 2,9.666668 6,15 4,5.333332 14,17 30,35 19.33334,21.33334 36,40 50,56 6,6.66667 17.33333,19 34,37 16.66667,18 28,30.33333 34,37 6,6.66667 15.66667,17.66667 29,33 13.33333,15.33334 22.66667,26.66666 28,34 5.33334,7.33334 13,17.33334 23,30 10,12.66666 17,23.33334 21,32 4,8.66666 9,18.33334 15,29 6,10.66666 10.33334,21.33334 13,32 2.66666,10.66666 5,20.66666 7,30 2,9.33334 3,20.33334 3,33 0,42 -11.33334,78.33331 -34,109 -22.66666,30.66669 -55,46 -97,46 -22,0 -41.33333,-5.66669 -58,-17 -16.66667,-11.33331 -28.33334,-22.33331 -35,-33 -6.66666,-10.66669 -10,-17 -10,-19 0,-0.66669 1.66666,-1 5,-1 12,0 24.33333,-4.66669 37,-14 12.66667,-9.33331 19,-24.66666 19,-46 0,-16.66666 -5.33333,-30.66666 -16,-42 -10.66667,-11.33334 -25.66667,-17.33334 -45,-18 z" /></g></g></g><g
       id="g979"><g
         clip-path="url(#clipPath985)"
         id="g981"><g
           transform="matrix(0.04340705,0,0,-0.04341203,791.54108,471.89575)"
           id="g987"><path
             id="path989"
             style="fill:#000000;fill-opacity:1;fill-rule:nonzero;stroke:none"
             d="m 118,-162 c 1.33334,0 3.33334,-0.66667 6,-2 2.66666,-1.33333 6.33333,-2.33333 11,-3 4.66667,-0.66667 8.66667,-1 12,-1 8.66667,0 16.66667,4.33333 24,13 7.33333,8.66667 12.66667,18.33333 16,29 6.66667,18 18,69 34,153 16,84 31.33333,164 46,240 14.66666,76 22,114.33334 22,115 v 3 h -47 c -31.33333,0 -48,0.66666 -50,2 -2.66667,2 -4,5.33334 -4,10 l 7,28 c 1.33333,3.33334 4,5 8,5 4,0 19.66667,0.33334 47,1 32,0 48,0.33334 48,1 0,1.33334 3,18 9,50 6,32 10,51.33331 12,58 24.66666,110 73.33331,165 146,165 24.66666,-1.33331 45,-8.66669 61,-22 16,-13.33331 24,-31 24,-53 0,-24 -7,-41.33331 -21,-52 -14,-10.66669 -28,-16.33331 -42,-17 -29.33334,0 -44,14 -44,42 0,12.66669 3.66666,23.66669 11,33 7.33334,9.33331 15.33334,16.33331 24,21 l 9,5 c -10.66666,4 -20.66666,6 -30,6 -8,0 -15.66666,-3.33331 -23,-10 -7.33334,-6.66669 -12.33334,-16 -15,-28 -4.66666,-19.33331 -10,-45.33331 -16,-78 -6,-32.66669 -11.33334,-60.33334 -16,-83 -4.66666,-22.66666 -7,-34.66666 -7,-36 0,-1.33334 18.33334,-2 55,-2 30,0 47.33334,-0.33334 52,-1 4.66666,-0.66666 8.33334,-2.66666 11,-6 0.66666,-2.66666 0,-8.33334 -2,-17 -2,-8.66666 -3.66666,-14 -5,-16 -1.33334,-3.33334 -4.33334,-5 -9,-5 -4.66666,0 -22.66666,-0.33334 -54,-1 H 372 L 349,263 C 317,97.666656 294.66666,-5.6666641 282,-47 c -18,-56.66667 -41.33333,-98.66667 -70,-126 -24.66667,-21.33333 -49,-32 -73,-32 -21.33334,0 -40.666664,6.33333 -58,19 -17.333336,12.66667 -26,30.66667 -26,54 0,24.66667 7,42.666664 21,54 14,11.333336 28,17 42,17 29.33333,0 44,-14 44,-42 0,-12.66666 -3.66667,-23.66666 -11,-33 -7.33333,-9.33333 -15.33333,-16.33333 -24,-21 z" /><path
             id="path991"
             style="fill:none;stroke:#000000;stroke-width:1;stroke-linecap:butt;stroke-linejoin:miter;stroke-miterlimit:10;stroke-dasharray:none;stroke-opacity:0.0118"
             d="m 118,-162 c 1.33334,0 3.33334,-0.66667 6,-2 2.66666,-1.33333 6.33333,-2.33333 11,-3 4.66667,-0.66667 8.66667,-1 12,-1 8.66667,0 16.66667,4.33333 24,13 7.33333,8.66667 12.66667,18.33333 16,29 6.66667,18 18,69 34,153 16,84 31.33333,164 46,240 14.66666,76 22,114.33334 22,115 v 3 h -47 c -31.33333,0 -48,0.66666 -50,2 -2.66667,2 -4,5.33334 -4,10 l 7,28 c 1.33333,3.33334 4,5 8,5 4,0 19.66667,0.33334 47,1 32,0 48,0.33334 48,1 0,1.33334 3,18 9,50 6,32 10,51.33331 12,58 24.66666,110 73.33331,165 146,165 24.66666,-1.33331 45,-8.66669 61,-22 16,-13.33331 24,-31 24,-53 0,-24 -7,-41.33331 -21,-52 -14,-10.66669 -28,-16.33331 -42,-17 -29.33334,0 -44,14 -44,42 0,12.66669 3.66666,23.66669 11,33 7.33334,9.33331 15.33334,16.33331 24,21 l 9,5 c -10.66666,4 -20.66666,6 -30,6 -8,0 -15.66666,-3.33331 -23,-10 -7.33334,-6.66669 -12.33334,-16 -15,-28 -4.66666,-19.33331 -10,-45.33331 -16,-78 -6,-32.66669 -11.33334,-60.33334 -16,-83 -4.66666,-22.66666 -7,-34.66666 -7,-36 0,-1.33334 18.33334,-2 55,-2 30,0 47.33334,-0.33334 52,-1 4.66666,-0.66666 8.33334,-2.66666 11,-6 0.66666,-2.66666 0,-8.33334 -2,-17 -2,-8.66666 -3.66666,-14 -5,-16 -1.33334,-3.33334 -4.33334,-5 -9,-5 -4.66666,0 -22.66666,-0.33334 -54,-1 H 372 L 349,263 C 317,97.666656 294.66666,-5.6666641 282,-47 c -18,-56.66667 -41.33333,-98.66667 -70,-126 -24.66667,-21.33333 -49,-32 -73,-32 -21.33334,0 -40.666664,6.33333 -58,19 -17.333336,12.66667 -26,30.66667 -26,54 0,24.66667 7,42.666664 21,54 14,11.333336 28,17 42,17 29.33333,0 44,-14 44,-42 0,-12.66666 -3.66667,-23.66666 -11,-33 -7.33333,-9.33333 -15.33333,-16.33333 -24,-21 z" /></g></g></g><g
       id="g993"><g
         clip-path="url(#clipPath999)"
         id="g995"><g
           transform="scale(2.9869475)"
           id="g1001"><text
             id="text1005"
             style="font-variant:normal;font-weight:normal;font-size:12px;font-family:Helvetica;-inkscape-font-specification:Helvetica;writing-mode:lr-tb;fill:#000000;fill-opacity:1;fill-rule:nonzero;stroke:none"
             transform="translate(236.96875,24)"><tspan
               id="tspan1003"
               y="0"
               x="0 8.0039062 14.677734 21.351562 28.025391 34.699219 37.365234 44.039062 54.035156 57.369141">Pendulum 2</tspan></text><text
             id="text1009"
             style="font-variant:normal;font-weight:normal;font-size:12px;font-family:Helvetica;-inkscape-font-specification:Helvetica;writing-mode:lr-tb;fill:#000000;fill-opacity:1;fill-rule:nonzero;stroke:none"
             transform="translate(206.96875,94)"><tspan
               id="tspan1007"
               y="0"
               x="0 8.0039062 14.677734 21.351562 28.025391 34.699219 37.365234 44.039062 54.035156 57.369141">Pendulum 1</tspan></text></g></g></g><g
       id="g1011"><g
         clip-path="url(#clipPath1017)"
         id="g1013"><g
           transform="matrix(0.04304937,0,0,-0.04342335,740.78748,128.40169)"
           id="g1019"><path
             id="path1021"
             style="fill:#000000;fill-opacity:1;fill-rule:nonzero;stroke:none"
             d="m 21,287 c 0.666666,4 1.666666,9.33334 3,16 1.333334,6.66666 5.333332,19.33334 12,38 6.666668,18.66666 13.333332,34.33334 20,47 6.666668,12.66666 17.333336,25 32,37 14.66666,12 29.33334,17.66666 44,17 14.66667,-0.66666 29,-3 43,-7 14,-4 24,-10 30,-18 6,-8 11.33333,-15.33334 16,-22 4.66667,-6.66666 7.33333,-13 8,-19 l 2,-7 c 0,-1.33334 0.33333,-2 1,-2 l 11,11 c 40,42.66666 87,64 141,64 11.33334,0 21.66666,-0.66666 31,-2 9.33334,-1.33334 18,-3.66666 26,-7 8,-3.33334 14.33334,-6.66666 19,-10 4.66666,-3.33334 9.66666,-7.33334 15,-12 5.33334,-4.66666 8.66666,-9 10,-13 1.33334,-4 4,-8.33334 8,-13 4,-4.66666 5.33334,-8.66666 4,-12 -1.33334,-3.33334 -0.33334,-6.33334 3,-9 3.33334,-2.66666 4,-5 2,-7 l 8,10 c 42,50 91.66669,75 149,75 36,0 65,-9 87,-27 22,-18 33.33331,-44.33334 34,-79 0,-34 -12.66669,-86.66666 -38,-158 -25.33331,-71.33334 -38,-114 -38,-128 0.66669,-9.333336 2.33331,-15.666668 5,-19 2.66669,-3.333334 7.66669,-5 15,-5 18.66669,0 36,10 52,30 16,20 29,47.33333 39,82 2,7.33333 4,11.66667 6,13 2,1.33333 7.33331,2 16,2 13.33331,0 20,-2.66667 20,-8 0,-0.66667 -1.33331,-5.66667 -4,-15 -5.33331,-19.33334 -12.66669,-38.333328 -22,-57 -9.33331,-18.666668 -24.66669,-37.333332 -46,-56 -21.33331,-18.6666679 -44.33331,-27.666667 -69,-27 -31.33331,0 -54,9 -68,27 -14,18 -21,36.666664 -21,56 0,12.666664 12,52.66666 36,120 24,67.33334 36.33331,118 37,152 0,39.33334 -14.66669,59 -44,59 h -5 C 593.66669,404 545.33331,370.33334 506,303 L 499,291 466,157 C 444,69.666664 431.33334,22.666668 428,16 c -8.66666,-18 -23,-27 -43,-27 -8.66666,0 -15.66666,2.333333 -21,7 -5.33334,4.66666698 -9,8.6666665 -11,12 -2,3.333334 -3,6.666666 -3,10 0,7.333334 11.33334,55 34,143 l 36,146 c 2,10 3,22.66666 3,38 0,39.33334 -14.66666,59 -44,59 h -5 C 316.66666,404 268.33334,370.33334 229,303 L 222,291 189,157 C 167,69.666664 154.33333,22.666668 151,16 c -8.66667,-18 -23,-27 -43,-27 -8.666664,0 -15.666664,2 -21,6 -5.333336,4 -9,8 -11,12 -2,4 -2.666664,7.333333 -2,10 0,8.666668 12.666664,63.333328 38,164 26,102.66669 39,156.33334 39,161 2,10 3,19 3,27 0,24 -8.33333,36 -25,36 -14.66666,0 -27,-9.33334 -37,-28 C 82,358.33334 74.333336,338 69,316 63.666668,294 59.666668,282 57,280 55.666668,278.66666 50.333336,278 41,278 H 27 c -4,4 -6,7 -6,9 z" /><path
             id="path1023"
             style="fill:none;stroke:#000000;stroke-width:1;stroke-linecap:butt;stroke-linejoin:miter;stroke-miterlimit:10;stroke-dasharray:none;stroke-opacity:0.0118"
             d="m 21,287 c 0.666666,4 1.666666,9.33334 3,16 1.333334,6.66666 5.333332,19.33334 12,38 6.666668,18.66666 13.333332,34.33334 20,47 6.666668,12.66666 17.333336,25 32,37 14.66666,12 29.33334,17.66666 44,17 14.66667,-0.66666 29,-3 43,-7 14,-4 24,-10 30,-18 6,-8 11.33333,-15.33334 16,-22 4.66667,-6.66666 7.33333,-13 8,-19 l 2,-7 c 0,-1.33334 0.33333,-2 1,-2 l 11,11 c 40,42.66666 87,64 141,64 11.33334,0 21.66666,-0.66666 31,-2 9.33334,-1.33334 18,-3.66666 26,-7 8,-3.33334 14.33334,-6.66666 19,-10 4.66666,-3.33334 9.66666,-7.33334 15,-12 5.33334,-4.66666 8.66666,-9 10,-13 1.33334,-4 4,-8.33334 8,-13 4,-4.66666 5.33334,-8.66666 4,-12 -1.33334,-3.33334 -0.33334,-6.33334 3,-9 3.33334,-2.66666 4,-5 2,-7 l 8,10 c 42,50 91.66669,75 149,75 36,0 65,-9 87,-27 22,-18 33.33331,-44.33334 34,-79 0,-34 -12.66669,-86.66666 -38,-158 -25.33331,-71.33334 -38,-114 -38,-128 0.66669,-9.333336 2.33331,-15.666668 5,-19 2.66669,-3.333334 7.66669,-5 15,-5 18.66669,0 36,10 52,30 16,20 29,47.33333 39,82 2,7.33333 4,11.66667 6,13 2,1.33333 7.33331,2 16,2 13.33331,0 20,-2.66667 20,-8 0,-0.66667 -1.33331,-5.66667 -4,-15 -5.33331,-19.33334 -12.66669,-38.333328 -22,-57 -9.33331,-18.666668 -24.66669,-37.333332 -46,-56 -21.33331,-18.6666679 -44.33331,-27.666667 -69,-27 -31.33331,0 -54,9 -68,27 -14,18 -21,36.666664 -21,56 0,12.666664 12,52.66666 36,120 24,67.33334 36.33331,118 37,152 0,39.33334 -14.66669,59 -44,59 h -5 C 593.66669,404 545.33331,370.33334 506,303 L 499,291 466,157 C 444,69.666664 431.33334,22.666668 428,16 c -8.66666,-18 -23,-27 -43,-27 -8.66666,0 -15.66666,2.333333 -21,7 -5.33334,4.66666698 -9,8.6666665 -11,12 -2,3.333334 -3,6.666666 -3,10 0,7.333334 11.33334,55 34,143 l 36,146 c 2,10 3,22.66666 3,38 0,39.33334 -14.66666,59 -44,59 h -5 C 316.66666,404 268.33334,370.33334 229,303 L 222,291 189,157 C 167,69.666664 154.33333,22.666668 151,16 c -8.66667,-18 -23,-27 -43,-27 -8.666664,0 -15.666664,2 -21,6 -5.333336,4 -9,8 -11,12 -2,4 -2.666664,7.333333 -2,10 0,8.666668 12.666664,63.333328 38,164 26,102.66669 39,156.33334 39,161 2,10 3,19 3,27 0,24 -8.33333,36 -25,36 -14.66666,0 -27,-9.33334 -37,-28 C 82,358.33334 74.333336,338 69,316 63.666668,294 59.666668,282 57,280 55.666668,278.66666 50.333336,278 41,278 H 27 c -4,4 -6,7 -6,9 z" /></g><g
           transform="matrix(0.03043591,0,0,-0.03070031,778.58484,134.91519)"
           id="g1025"><path
             id="path1027"
             style="fill:#000000;fill-opacity:1;fill-rule:nonzero;stroke:none"
             d="m 109,429 c -18,0 -32.333336,6 -43,18 -10.666668,12 -16,26.66666 -16,44 0,47.33331 17.666664,88.33331 53,123 35.33334,34.66669 79.33333,52 132,52 60.66666,0 111.33334,-18.66669 152,-56 40.66666,-37.33331 61.33334,-85.66669 62,-145 0,-28.66666 -6.66666,-56 -20,-82 -13.33334,-26 -29.33334,-48.66666 -48,-68 -18.66666,-19.33334 -45.33334,-44 -80,-74 -24,-20.66667 -57.33333,-51.33333 -100,-92 l -59,-56 76,-1 c 104.66669,0 160.33334,1.666664 167,5 4.66666,1.333336 12.66666,31 24,89 v 3 h 40 v -3 C 448.33334,184 444,153.66667 436,95 428,36.333332 423,5.666667 421,3 V 0 H 50 v 19 12 c 0,4.666668 2,9.666668 6,15 4,5.333332 14,17 30,35 19.33334,21.33334 36,40 50,56 6,6.66667 17.33333,19 34,37 16.66667,18 28,30.33333 34,37 6,6.66667 15.66667,17.66667 29,33 13.33333,15.33334 22.66667,26.66666 28,34 5.33334,7.33334 13,17.33334 23,30 10,12.66666 17,23.33334 21,32 4,8.66666 9,18.33334 15,29 6,10.66666 10.33334,21.33334 13,32 2.66666,10.66666 5,20.66666 7,30 2,9.33334 3,20.33334 3,33 0,42 -11.33334,78.33331 -34,109 -22.66666,30.66669 -55,46 -97,46 -22,0 -41.33333,-5.66669 -58,-17 -16.66667,-11.33331 -28.33334,-22.33331 -35,-33 -6.66666,-10.66669 -10,-17 -10,-19 0,-0.66669 1.66666,-1 5,-1 12,0 24.33333,-4.66669 37,-14 12.66667,-9.33331 19,-24.66666 19,-46 0,-16.66666 -5.33333,-30.66666 -16,-42 -10.66667,-11.33334 -25.66667,-17.33334 -45,-18 z" /><path
             id="path1029"
             style="fill:none;stroke:#000000;stroke-width:1;stroke-linecap:butt;stroke-linejoin:miter;stroke-miterlimit:10;stroke-dasharray:none;stroke-opacity:0.00779999"
             d="m 109,429 c -18,0 -32.333336,6 -43,18 -10.666668,12 -16,26.66666 -16,44 0,47.33331 17.666664,88.33331 53,123 35.33334,34.66669 79.33333,52 132,52 60.66666,0 111.33334,-18.66669 152,-56 40.66666,-37.33331 61.33334,-85.66669 62,-145 0,-28.66666 -6.66666,-56 -20,-82 -13.33334,-26 -29.33334,-48.66666 -48,-68 -18.66666,-19.33334 -45.33334,-44 -80,-74 -24,-20.66667 -57.33333,-51.33333 -100,-92 l -59,-56 76,-1 c 104.66669,0 160.33334,1.666664 167,5 4.66666,1.333336 12.66666,31 24,89 v 3 h 40 v -3 C 448.33334,184 444,153.66667 436,95 428,36.333332 423,5.666667 421,3 V 0 H 50 v 19 12 c 0,4.666668 2,9.666668 6,15 4,5.333332 14,17 30,35 19.33334,21.33334 36,40 50,56 6,6.66667 17.33333,19 34,37 16.66667,18 28,30.33333 34,37 6,6.66667 15.66667,17.66667 29,33 13.33333,15.33334 22.66667,26.66666 28,34 5.33334,7.33334 13,17.33334 23,30 10,12.66666 17,23.33334 21,32 4,8.66666 9,18.33334 15,29 6,10.66666 10.33334,21.33334 13,32 2.66666,10.66666 5,20.66666 7,30 2,9.33334 3,20.33334 3,33 0,42 -11.33334,78.33331 -34,109 -22.66666,30.66669 -55,46 -97,46 -22,0 -41.33333,-5.66669 -58,-17 -16.66667,-11.33331 -28.33334,-22.33331 -35,-33 -6.66666,-10.66669 -10,-17 -10,-19 0,-0.66669 1.66666,-1 5,-1 12,0 24.33333,-4.66669 37,-14 12.66667,-9.33331 19,-24.66666 19,-46 0,-16.66666 -5.33333,-30.66666 -16,-42 -10.66667,-11.33334 -25.66667,-17.33334 -45,-18 z" /></g><g
           transform="matrix(0.04304937,0,0,-0.04342335,798.12927,128.40169)"
           id="g1031"><path
             id="path1033"
             style="fill:#000000;fill-opacity:1;fill-rule:nonzero;stroke:none"
             d="m 78,35 c 0,0 0,8.333332 0,25 0,16.666672 5.333336,31 16,43 10.66666,12 25,18 43,18 18.66667,0 35.33333,-8.33333 50,-25 14.66667,-16.666672 22.33333,-46 23,-88 0,-23.333334 -3,-46 -9,-68 -6,-22 -13,-41 -21,-57 -8,-16 -16.66667,-29.66667 -26,-41 -9.33333,-11.33333 -17.33333,-20.33333 -24,-27 -6.66666,-6.66667 -11,-9.66667 -13,-9 -2.66666,0 -7,3 -13,9 -6,6 -9,10.33333 -9,13 0,2.66667 3.666664,8 11,16 7.33334,8 15.66666,18 25,30 9.33333,12 18,28.666664 26,50 8,21.333336 13.33333,45.666666 16,73 V 9 L 172,8 C 170.66667,7.3333335 169,6.6666665 167,6 165,5.3333335 163,4.3333335 161,3 159,1.6666666 156,1 152,1 148,1 144,0.66666669 140,0 122,0 107.33334,5.666666 96,17 Z" /><path
             id="path1035"
             style="fill:none;stroke:#000000;stroke-width:1;stroke-linecap:butt;stroke-linejoin:miter;stroke-miterlimit:10;stroke-dasharray:none;stroke-opacity:0.0118"
             d="m 78,35 c 0,0 0,8.333332 0,25 0,16.666672 5.333336,31 16,43 10.66666,12 25,18 43,18 18.66667,0 35.33333,-8.33333 50,-25 14.66667,-16.666672 22.33333,-46 23,-88 0,-23.333334 -3,-46 -9,-68 -6,-22 -13,-41 -21,-57 -8,-16 -16.66667,-29.66667 -26,-41 -9.33333,-11.33333 -17.33333,-20.33333 -24,-27 -6.66666,-6.66667 -11,-9.66667 -13,-9 -2.66666,0 -7,3 -13,9 -6,6 -9,10.33333 -9,13 0,2.66667 3.666664,8 11,16 7.33334,8 15.66666,18 25,30 9.33333,12 18,28.666664 26,50 8,21.333336 13.33333,45.666666 16,73 V 9 L 172,8 C 170.66667,7.3333335 169,6.6666665 167,6 165,5.3333335 163,4.3333335 161,3 159,1.6666666 156,1 152,1 148,1 144,0.66666669 140,0 122,0 107.33334,5.666666 96,17 Z" /></g><g
           transform="matrix(0.04304937,0,0,-0.04342335,817.28625,128.40169)"
           id="g1037"><path
             id="path1039"
             style="fill:#000000;fill-opacity:1;fill-rule:nonzero;stroke:none"
             d="m 228,637 c -22.66667,0 -34.66667,1.33331 -36,4 -0.66667,1.33331 -1,4 -1,8 0,16 3.66667,27 11,33 1.33333,0.66669 6.33333,1 15,1 36,-2 78.33334,-3 127,-3 94,0 148,1 162,3 h 12 c 4,-4 6,-7 6,-9 0,-2 -0.66669,-8 -2,-18 -3.33331,-10 -6.33331,-16.33331 -9,-19 h -38 c -46,-0.66669 -73,-3.66669 -81,-9 -4.66666,-2.66669 -9.33334,-12 -14,-28 C 375.33334,584 353,496 313,336 302.33334,292.66666 291,246.66667 279,198 267,149.33333 258,112.66667 252,88 l -9,-36 c 0,-2.666668 3,-4 9,-4 6,0 25.66666,-0.666668 59,-2 h 17 c 21.33334,0 38.33334,0.333332 51,1 12.66666,0.666668 29,3 49,7 20,4 36.66666,10 50,18 13.33334,8 28,19.333336 44,34 16,14.66666 30,33 42,55 10.66669,20 20.66669,42.33333 30,67 9.33331,24.66667 15,38.66666 17,42 3.33331,2 9,3 17,3 h 13 c 4,-6 6,-9.66666 6,-11 0,-1.33334 -6.66669,-21 -20,-59 C 613.66669,165 599,125 583,83 567,41 558.33331,16.333334 557,9 555.66669,5.6666665 554.33331,3.6666667 553,3 551.66669,2.3333333 546.33331,1.3333334 537,0 c -9.33331,-1.3333334 -23.66669,-1.6666667 -43,-1 -7.33334,0 -32.66666,0 -76,0 -43.33334,0 -84.66666,0.33333331 -124,1 H 116 C 60,0 32,3.333333 32,10 c 0,4.666667 0.666668,9.333332 2,14 3.333332,12.666668 6.666668,19.666668 10,21 2.666668,0.666668 7.666668,1 15,1 h 6 c 18,0 38,1 60,3 9.33333,2 15.66667,6 19,12 2,2.666668 26,95.33333 72,278 46,182.66669 69,279 69,289 0,4.66669 -19,7.66669 -57,9 z" /><path
             id="path1041"
             style="fill:none;stroke:#000000;stroke-width:1;stroke-linecap:butt;stroke-linejoin:miter;stroke-miterlimit:10;stroke-dasharray:none;stroke-opacity:0.0118"
             d="m 228,637 c -22.66667,0 -34.66667,1.33331 -36,4 -0.66667,1.33331 -1,4 -1,8 0,16 3.66667,27 11,33 1.33333,0.66669 6.33333,1 15,1 36,-2 78.33334,-3 127,-3 94,0 148,1 162,3 h 12 c 4,-4 6,-7 6,-9 0,-2 -0.66669,-8 -2,-18 -3.33331,-10 -6.33331,-16.33331 -9,-19 h -38 c -46,-0.66669 -73,-3.66669 -81,-9 -4.66666,-2.66669 -9.33334,-12 -14,-28 C 375.33334,584 353,496 313,336 302.33334,292.66666 291,246.66667 279,198 267,149.33333 258,112.66667 252,88 l -9,-36 c 0,-2.666668 3,-4 9,-4 6,0 25.66666,-0.666668 59,-2 h 17 c 21.33334,0 38.33334,0.333332 51,1 12.66666,0.666668 29,3 49,7 20,4 36.66666,10 50,18 13.33334,8 28,19.333336 44,34 16,14.66666 30,33 42,55 10.66669,20 20.66669,42.33333 30,67 9.33331,24.66667 15,38.66666 17,42 3.33331,2 9,3 17,3 h 13 c 4,-6 6,-9.66666 6,-11 0,-1.33334 -6.66669,-21 -20,-59 C 613.66669,165 599,125 583,83 567,41 558.33331,16.333334 557,9 555.66669,5.6666665 554.33331,3.6666667 553,3 551.66669,2.3333333 546.33331,1.3333334 537,0 c -9.33331,-1.3333334 -23.66669,-1.6666667 -43,-1 -7.33334,0 -32.66666,0 -76,0 -43.33334,0 -84.66666,0.33333331 -124,1 H 116 C 60,0 32,3.333333 32,10 c 0,4.666667 0.666668,9.333332 2,14 3.333332,12.666668 6.666668,19.666668 10,21 2.666668,0.666668 7.666668,1 15,1 h 6 c 18,0 38,1 60,3 9.33333,2 15.66667,6 19,12 2,2.666668 26,95.33333 72,278 46,182.66669 69,279 69,289 0,4.66669 -19,7.66669 -57,9 z" /></g><g
           transform="matrix(0.03043591,0,0,-0.03070031,846.60284,134.91519)"
           id="g1043"><path
             id="path1045"
             style="fill:#000000;fill-opacity:1;fill-rule:nonzero;stroke:none"
             d="m 109,429 c -18,0 -32.333336,6 -43,18 -10.666668,12 -16,26.66666 -16,44 0,47.33331 17.666664,88.33331 53,123 35.33334,34.66669 79.33333,52 132,52 60.66666,0 111.33334,-18.66669 152,-56 40.66666,-37.33331 61.33334,-85.66669 62,-145 0,-28.66666 -6.66666,-56 -20,-82 -13.33334,-26 -29.33334,-48.66666 -48,-68 -18.66666,-19.33334 -45.33334,-44 -80,-74 -24,-20.66667 -57.33333,-51.33333 -100,-92 l -59,-56 76,-1 c 104.66669,0 160.33334,1.666664 167,5 4.66666,1.333336 12.66666,31 24,89 v 3 h 40 v -3 C 448.33334,184 444,153.66667 436,95 428,36.333332 423,5.666667 421,3 V 0 H 50 v 19 12 c 0,4.666668 2,9.666668 6,15 4,5.333332 14,17 30,35 19.33334,21.33334 36,40 50,56 6,6.66667 17.33333,19 34,37 16.66667,18 28,30.33333 34,37 6,6.66667 15.66667,17.66667 29,33 13.33333,15.33334 22.66667,26.66666 28,34 5.33334,7.33334 13,17.33334 23,30 10,12.66666 17,23.33334 21,32 4,8.66666 9,18.33334 15,29 6,10.66666 10.33334,21.33334 13,32 2.66666,10.66666 5,20.66666 7,30 2,9.33334 3,20.33334 3,33 0,42 -11.33334,78.33331 -34,109 -22.66666,30.66669 -55,46 -97,46 -22,0 -41.33333,-5.66669 -58,-17 -16.66667,-11.33331 -28.33334,-22.33331 -35,-33 -6.66666,-10.66669 -10,-17 -10,-19 0,-0.66669 1.66666,-1 5,-1 12,0 24.33333,-4.66669 37,-14 12.66667,-9.33331 19,-24.66666 19,-46 0,-16.66666 -5.33333,-30.66666 -16,-42 -10.66667,-11.33334 -25.66667,-17.33334 -45,-18 z" /><path
             id="path1047"
             style="fill:none;stroke:#000000;stroke-width:1;stroke-linecap:butt;stroke-linejoin:miter;stroke-miterlimit:10;stroke-dasharray:none;stroke-opacity:0.00779999"
             d="m 109,429 c -18,0 -32.333336,6 -43,18 -10.666668,12 -16,26.66666 -16,44 0,47.33331 17.666664,88.33331 53,123 35.33334,34.66669 79.33333,52 132,52 60.66666,0 111.33334,-18.66669 152,-56 40.66666,-37.33331 61.33334,-85.66669 62,-145 0,-28.66666 -6.66666,-56 -20,-82 -13.33334,-26 -29.33334,-48.66666 -48,-68 -18.66666,-19.33334 -45.33334,-44 -80,-74 -24,-20.66667 -57.33333,-51.33333 -100,-92 l -59,-56 76,-1 c 104.66669,0 160.33334,1.666664 167,5 4.66666,1.333336 12.66666,31 24,89 v 3 h 40 v -3 C 448.33334,184 444,153.66667 436,95 428,36.333332 423,5.666667 421,3 V 0 H 50 v 19 12 c 0,4.666668 2,9.666668 6,15 4,5.333332 14,17 30,35 19.33334,21.33334 36,40 50,56 6,6.66667 17.33333,19 34,37 16.66667,18 28,30.33333 34,37 6,6.66667 15.66667,17.66667 29,33 13.33333,15.33334 22.66667,26.66666 28,34 5.33334,7.33334 13,17.33334 23,30 10,12.66666 17,23.33334 21,32 4,8.66666 9,18.33334 15,29 6,10.66666 10.33334,21.33334 13,32 2.66666,10.66666 5,20.66666 7,30 2,9.33334 3,20.33334 3,33 0,42 -11.33334,78.33331 -34,109 -22.66666,30.66669 -55,46 -97,46 -22,0 -41.33333,-5.66669 -58,-17 -16.66667,-11.33331 -28.33334,-22.33331 -35,-33 -6.66666,-10.66669 -10,-17 -10,-19 0,-0.66669 1.66666,-1 5,-1 12,0 24.33333,-4.66669 37,-14 12.66667,-9.33331 19,-24.66666 19,-46 0,-16.66666 -5.33333,-30.66666 -16,-42 -10.66667,-11.33334 -25.66667,-17.33334 -45,-18 z" /></g></g></g><g
       id="g1049"><g
         clip-path="url(#clipPath1055)"
         id="g1051"><g
           transform="matrix(0.04304937,0,0,-0.04342335,651.17902,337.48801)"
           id="g1057"><path
             id="path1059"
             style="fill:#000000;fill-opacity:1;fill-rule:nonzero;stroke:none"
             d="m 21,287 c 0.666666,4 1.666666,9.33334 3,16 1.333334,6.66666 5.333332,19.33334 12,38 6.666668,18.66666 13.333332,34.33334 20,47 6.666668,12.66666 17.333336,25 32,37 14.66666,12 29.33334,17.66666 44,17 14.66667,-0.66666 29,-3 43,-7 14,-4 24,-10 30,-18 6,-8 11.33333,-15.33334 16,-22 4.66667,-6.66666 7.33333,-13 8,-19 l 2,-7 c 0,-1.33334 0.33333,-2 1,-2 l 11,11 c 40,42.66666 87,64 141,64 11.33334,0 21.66666,-0.66666 31,-2 9.33334,-1.33334 18,-3.66666 26,-7 8,-3.33334 14.33334,-6.66666 19,-10 4.66666,-3.33334 9.66666,-7.33334 15,-12 5.33334,-4.66666 8.66666,-9 10,-13 1.33334,-4 4,-8.33334 8,-13 4,-4.66666 5.33334,-8.66666 4,-12 -1.33334,-3.33334 -0.33334,-6.33334 3,-9 3.33334,-2.66666 4,-5 2,-7 l 8,10 c 42,50 91.66669,75 149,75 36,0 65,-9 87,-27 22,-18 33.33331,-44.33334 34,-79 0,-34 -12.66669,-86.66666 -38,-158 -25.33331,-71.33334 -38,-114 -38,-128 0.66669,-9.333336 2.33331,-15.666668 5,-19 2.66669,-3.333334 7.66669,-5 15,-5 18.66669,0 36,10 52,30 16,20 29,47.33333 39,82 2,7.33333 4,11.66667 6,13 2,1.33333 7.33331,2 16,2 13.33331,0 20,-2.66667 20,-8 0,-0.66667 -1.33331,-5.66667 -4,-15 -5.33331,-19.33334 -12.66669,-38.333328 -22,-57 -9.33331,-18.666668 -24.66669,-37.333332 -46,-56 -21.33331,-18.6666679 -44.33331,-27.666667 -69,-27 -31.33331,0 -54,9 -68,27 -14,18 -21,36.666664 -21,56 0,12.666664 12,52.66666 36,120 24,67.33334 36.33331,118 37,152 0,39.33334 -14.66669,59 -44,59 h -5 C 593.66669,404 545.33331,370.33334 506,303 L 499,291 466,157 C 444,69.666664 431.33334,22.666668 428,16 c -8.66666,-18 -23,-27 -43,-27 -8.66666,0 -15.66666,2.333333 -21,7 -5.33334,4.66666698 -9,8.6666665 -11,12 -2,3.333334 -3,6.666666 -3,10 0,7.333334 11.33334,55 34,143 l 36,146 c 2,10 3,22.66666 3,38 0,39.33334 -14.66666,59 -44,59 h -5 C 316.66666,404 268.33334,370.33334 229,303 L 222,291 189,157 C 167,69.666664 154.33333,22.666668 151,16 c -8.66667,-18 -23,-27 -43,-27 -8.666664,0 -15.666664,2 -21,6 -5.333336,4 -9,8 -11,12 -2,4 -2.666664,7.333333 -2,10 0,8.666668 12.666664,63.333328 38,164 26,102.66669 39,156.33334 39,161 2,10 3,19 3,27 0,24 -8.33333,36 -25,36 -14.66666,0 -27,-9.33334 -37,-28 C 82,358.33334 74.333336,338 69,316 63.666668,294 59.666668,282 57,280 55.666668,278.66666 50.333336,278 41,278 H 27 c -4,4 -6,7 -6,9 z" /><path
             id="path1061"
             style="fill:none;stroke:#000000;stroke-width:1;stroke-linecap:butt;stroke-linejoin:miter;stroke-miterlimit:10;stroke-dasharray:none;stroke-opacity:0.0118"
             d="m 21,287 c 0.666666,4 1.666666,9.33334 3,16 1.333334,6.66666 5.333332,19.33334 12,38 6.666668,18.66666 13.333332,34.33334 20,47 6.666668,12.66666 17.333336,25 32,37 14.66666,12 29.33334,17.66666 44,17 14.66667,-0.66666 29,-3 43,-7 14,-4 24,-10 30,-18 6,-8 11.33333,-15.33334 16,-22 4.66667,-6.66666 7.33333,-13 8,-19 l 2,-7 c 0,-1.33334 0.33333,-2 1,-2 l 11,11 c 40,42.66666 87,64 141,64 11.33334,0 21.66666,-0.66666 31,-2 9.33334,-1.33334 18,-3.66666 26,-7 8,-3.33334 14.33334,-6.66666 19,-10 4.66666,-3.33334 9.66666,-7.33334 15,-12 5.33334,-4.66666 8.66666,-9 10,-13 1.33334,-4 4,-8.33334 8,-13 4,-4.66666 5.33334,-8.66666 4,-12 -1.33334,-3.33334 -0.33334,-6.33334 3,-9 3.33334,-2.66666 4,-5 2,-7 l 8,10 c 42,50 91.66669,75 149,75 36,0 65,-9 87,-27 22,-18 33.33331,-44.33334 34,-79 0,-34 -12.66669,-86.66666 -38,-158 -25.33331,-71.33334 -38,-114 -38,-128 0.66669,-9.333336 2.33331,-15.666668 5,-19 2.66669,-3.333334 7.66669,-5 15,-5 18.66669,0 36,10 52,30 16,20 29,47.33333 39,82 2,7.33333 4,11.66667 6,13 2,1.33333 7.33331,2 16,2 13.33331,0 20,-2.66667 20,-8 0,-0.66667 -1.33331,-5.66667 -4,-15 -5.33331,-19.33334 -12.66669,-38.333328 -22,-57 -9.33331,-18.666668 -24.66669,-37.333332 -46,-56 -21.33331,-18.6666679 -44.33331,-27.666667 -69,-27 -31.33331,0 -54,9 -68,27 -14,18 -21,36.666664 -21,56 0,12.666664 12,52.66666 36,120 24,67.33334 36.33331,118 37,152 0,39.33334 -14.66669,59 -44,59 h -5 C 593.66669,404 545.33331,370.33334 506,303 L 499,291 466,157 C 444,69.666664 431.33334,22.666668 428,16 c -8.66666,-18 -23,-27 -43,-27 -8.66666,0 -15.66666,2.333333 -21,7 -5.33334,4.66666698 -9,8.6666665 -11,12 -2,3.333334 -3,6.666666 -3,10 0,7.333334 11.33334,55 34,143 l 36,146 c 2,10 3,22.66666 3,38 0,39.33334 -14.66666,59 -44,59 h -5 C 316.66666,404 268.33334,370.33334 229,303 L 222,291 189,157 C 167,69.666664 154.33333,22.666668 151,16 c -8.66667,-18 -23,-27 -43,-27 -8.666664,0 -15.666664,2 -21,6 -5.333336,4 -9,8 -11,12 -2,4 -2.666664,7.333333 -2,10 0,8.666668 12.666664,63.333328 38,164 26,102.66669 39,156.33334 39,161 2,10 3,19 3,27 0,24 -8.33333,36 -25,36 -14.66666,0 -27,-9.33334 -37,-28 C 82,358.33334 74.333336,338 69,316 63.666668,294 59.666668,282 57,280 55.666668,278.66666 50.333336,278 41,278 H 27 c -4,4 -6,7 -6,9 z" /></g><g
           transform="matrix(0.03043591,0,0,-0.03070031,688.97638,344.00153)"
           id="g1063"><path
             id="path1065"
             style="fill:#000000;fill-opacity:1;fill-rule:nonzero;stroke:none"
             d="m 213,578 -13,-5 c -9.33333,-3.33331 -22.66667,-6.66669 -40,-10 -17.33333,-3.33331 -36.66666,-5.66669 -58,-7 H 83 v 46 h 19 c 31.33333,1.33331 60.33333,6.33331 87,15 26.66667,8.66669 45.33333,16.66669 56,24 10.66667,7.33331 20,14.66669 28,22 1.33334,2 5.33334,3 12,3 6,0 11.66666,-2 17,-6 V 361 l 1,-300 c 4.66666,-4.666668 8.66666,-7.666668 12,-9 3.33334,-1.333332 11.33334,-2.666668 24,-4 12.66666,-1.333332 33.33334,-2 62,-2 h 26 V 0 H 416 C 402,2 349,3 257,3 166.33333,3 114,2 100,0 H 88 v 46 h 26 c 14.66667,0 27.33333,0 38,0 10.66667,0 19,0.333332 25,1 6,0.666668 11.33333,1.666668 16,3 4.66667,1.333332 7.33333,2 8,2 0.66667,0 2.66667,1.666668 6,5 3.33333,3.333332 5.33333,4.666668 6,4 z" /><path
             id="path1067"
             style="fill:none;stroke:#000000;stroke-width:1;stroke-linecap:butt;stroke-linejoin:miter;stroke-miterlimit:10;stroke-dasharray:none;stroke-opacity:0.00779999"
             d="m 213,578 -13,-5 c -9.33333,-3.33331 -22.66667,-6.66669 -40,-10 -17.33333,-3.33331 -36.66666,-5.66669 -58,-7 H 83 v 46 h 19 c 31.33333,1.33331 60.33333,6.33331 87,15 26.66667,8.66669 45.33333,16.66669 56,24 10.66667,7.33331 20,14.66669 28,22 1.33334,2 5.33334,3 12,3 6,0 11.66666,-2 17,-6 V 361 l 1,-300 c 4.66666,-4.666668 8.66666,-7.666668 12,-9 3.33334,-1.333332 11.33334,-2.666668 24,-4 12.66666,-1.333332 33.33334,-2 62,-2 h 26 V 0 H 416 C 402,2 349,3 257,3 166.33333,3 114,2 100,0 H 88 v 46 h 26 c 14.66667,0 27.33333,0 38,0 10.66667,0 19,0.333332 25,1 6,0.666668 11.33333,1.666668 16,3 4.66667,1.333332 7.33333,2 8,2 0.66667,0 2.66667,1.666668 6,5 3.33333,3.333332 5.33333,4.666668 6,4 z" /></g><g
           transform="matrix(0.04304937,0,0,-0.04342335,708.52081,337.48801)"
           id="g1069"><path
             id="path1071"
             style="fill:#000000;fill-opacity:1;fill-rule:nonzero;stroke:none"
             d="m 78,35 c 0,0 0,8.333332 0,25 0,16.666672 5.333336,31 16,43 10.66666,12 25,18 43,18 18.66667,0 35.33333,-8.33333 50,-25 14.66667,-16.666672 22.33333,-46 23,-88 0,-23.333334 -3,-46 -9,-68 -6,-22 -13,-41 -21,-57 -8,-16 -16.66667,-29.66667 -26,-41 -9.33333,-11.33333 -17.33333,-20.33333 -24,-27 -6.66666,-6.66667 -11,-9.66667 -13,-9 -2.66666,0 -7,3 -13,9 -6,6 -9,10.33333 -9,13 0,2.66667 3.666664,8 11,16 7.33334,8 15.66666,18 25,30 9.33333,12 18,28.666664 26,50 8,21.333336 13.33333,45.666666 16,73 V 9 L 172,8 C 170.66667,7.3333335 169,6.6666665 167,6 165,5.3333335 163,4.3333335 161,3 159,1.6666666 156,1 152,1 148,1 144,0.66666669 140,0 122,0 107.33334,5.666666 96,17 Z" /><path
             id="path1073"
             style="fill:none;stroke:#000000;stroke-width:1;stroke-linecap:butt;stroke-linejoin:miter;stroke-miterlimit:10;stroke-dasharray:none;stroke-opacity:0.0118"
             d="m 78,35 c 0,0 0,8.333332 0,25 0,16.666672 5.333336,31 16,43 10.66666,12 25,18 43,18 18.66667,0 35.33333,-8.33333 50,-25 14.66667,-16.666672 22.33333,-46 23,-88 0,-23.333334 -3,-46 -9,-68 -6,-22 -13,-41 -21,-57 -8,-16 -16.66667,-29.66667 -26,-41 -9.33333,-11.33333 -17.33333,-20.33333 -24,-27 -6.66666,-6.66667 -11,-9.66667 -13,-9 -2.66666,0 -7,3 -13,9 -6,6 -9,10.33333 -9,13 0,2.66667 3.666664,8 11,16 7.33334,8 15.66666,18 25,30 9.33333,12 18,28.666664 26,50 8,21.333336 13.33333,45.666666 16,73 V 9 L 172,8 C 170.66667,7.3333335 169,6.6666665 167,6 165,5.3333335 163,4.3333335 161,3 159,1.6666666 156,1 152,1 148,1 144,0.66666669 140,0 122,0 107.33334,5.666666 96,17 Z" /></g><g
           transform="matrix(0.04304937,0,0,-0.04342335,727.67773,337.48801)"
           id="g1075"><path
             id="path1077"
             style="fill:#000000;fill-opacity:1;fill-rule:nonzero;stroke:none"
             d="m 228,637 c -22.66667,0 -34.66667,1.33331 -36,4 -0.66667,1.33331 -1,4 -1,8 0,16 3.66667,27 11,33 1.33333,0.66669 6.33333,1 15,1 36,-2 78.33334,-3 127,-3 94,0 148,1 162,3 h 12 c 4,-4 6,-7 6,-9 0,-2 -0.66669,-8 -2,-18 -3.33331,-10 -6.33331,-16.33331 -9,-19 h -38 c -46,-0.66669 -73,-3.66669 -81,-9 -4.66666,-2.66669 -9.33334,-12 -14,-28 C 375.33334,584 353,496 313,336 302.33334,292.66666 291,246.66667 279,198 267,149.33333 258,112.66667 252,88 l -9,-36 c 0,-2.666668 3,-4 9,-4 6,0 25.66666,-0.666668 59,-2 h 17 c 21.33334,0 38.33334,0.333332 51,1 12.66666,0.666668 29,3 49,7 20,4 36.66666,10 50,18 13.33334,8 28,19.333336 44,34 16,14.66666 30,33 42,55 10.66669,20 20.66669,42.33333 30,67 9.33331,24.66667 15,38.66666 17,42 3.33331,2 9,3 17,3 h 13 c 4,-6 6,-9.66666 6,-11 0,-1.33334 -6.66669,-21 -20,-59 C 613.66669,165 599,125 583,83 567,41 558.33331,16.333334 557,9 555.66669,5.6666665 554.33331,3.6666667 553,3 551.66669,2.3333333 546.33331,1.3333334 537,0 c -9.33331,-1.3333334 -23.66669,-1.6666667 -43,-1 -7.33334,0 -32.66666,0 -76,0 -43.33334,0 -84.66666,0.33333331 -124,1 H 116 C 60,0 32,3.333333 32,10 c 0,4.666667 0.666668,9.333332 2,14 3.333332,12.666668 6.666668,19.666668 10,21 2.666668,0.666668 7.666668,1 15,1 h 6 c 18,0 38,1 60,3 9.33333,2 15.66667,6 19,12 2,2.666668 26,95.33333 72,278 46,182.66669 69,279 69,289 0,4.66669 -19,7.66669 -57,9 z" /><path
             id="path1079"
             style="fill:none;stroke:#000000;stroke-width:1;stroke-linecap:butt;stroke-linejoin:miter;stroke-miterlimit:10;stroke-dasharray:none;stroke-opacity:0.0118"
             d="m 228,637 c -22.66667,0 -34.66667,1.33331 -36,4 -0.66667,1.33331 -1,4 -1,8 0,16 3.66667,27 11,33 1.33333,0.66669 6.33333,1 15,1 36,-2 78.33334,-3 127,-3 94,0 148,1 162,3 h 12 c 4,-4 6,-7 6,-9 0,-2 -0.66669,-8 -2,-18 -3.33331,-10 -6.33331,-16.33331 -9,-19 h -38 c -46,-0.66669 -73,-3.66669 -81,-9 -4.66666,-2.66669 -9.33334,-12 -14,-28 C 375.33334,584 353,496 313,336 302.33334,292.66666 291,246.66667 279,198 267,149.33333 258,112.66667 252,88 l -9,-36 c 0,-2.666668 3,-4 9,-4 6,0 25.66666,-0.666668 59,-2 h 17 c 21.33334,0 38.33334,0.333332 51,1 12.66666,0.666668 29,3 49,7 20,4 36.66666,10 50,18 13.33334,8 28,19.333336 44,34 16,14.66666 30,33 42,55 10.66669,20 20.66669,42.33333 30,67 9.33331,24.66667 15,38.66666 17,42 3.33331,2 9,3 17,3 h 13 c 4,-6 6,-9.66666 6,-11 0,-1.33334 -6.66669,-21 -20,-59 C 613.66669,165 599,125 583,83 567,41 558.33331,16.333334 557,9 555.66669,5.6666665 554.33331,3.6666667 553,3 551.66669,2.3333333 546.33331,1.3333334 537,0 c -9.33331,-1.3333334 -23.66669,-1.6666667 -43,-1 -7.33334,0 -32.66666,0 -76,0 -43.33334,0 -84.66666,0.33333331 -124,1 H 116 C 60,0 32,3.333333 32,10 c 0,4.666667 0.666668,9.333332 2,14 3.333332,12.666668 6.666668,19.666668 10,21 2.666668,0.666668 7.666668,1 15,1 h 6 c 18,0 38,1 60,3 9.33333,2 15.66667,6 19,12 2,2.666668 26,95.33333 72,278 46,182.66669 69,279 69,289 0,4.66669 -19,7.66669 -57,9 z" /></g><g
           transform="matrix(0.03043591,0,0,-0.03070031,756.99438,344.00153)"
           id="g1081"><path
             id="path1083"
             style="fill:#000000;fill-opacity:1;fill-rule:nonzero;stroke:none"
             d="m 213,578 -13,-5 c -9.33333,-3.33331 -22.66667,-6.66669 -40,-10 -17.33333,-3.33331 -36.66666,-5.66669 -58,-7 H 83 v 46 h 19 c 31.33333,1.33331 60.33333,6.33331 87,15 26.66667,8.66669 45.33333,16.66669 56,24 10.66667,7.33331 20,14.66669 28,22 1.33334,2 5.33334,3 12,3 6,0 11.66666,-2 17,-6 V 361 l 1,-300 c 4.66666,-4.666668 8.66666,-7.666668 12,-9 3.33334,-1.333332 11.33334,-2.666668 24,-4 12.66666,-1.333332 33.33334,-2 62,-2 h 26 V 0 H 416 C 402,2 349,3 257,3 166.33333,3 114,2 100,0 H 88 v 46 h 26 c 14.66667,0 27.33333,0 38,0 10.66667,0 19,0.333332 25,1 6,0.666668 11.33333,1.666668 16,3 4.66667,1.333332 7.33333,2 8,2 0.66667,0 2.66667,1.666668 6,5 3.33333,3.333332 5.33333,4.666668 6,4 z" /><path
             id="path1085"
             style="fill:none;stroke:#000000;stroke-width:1;stroke-linecap:butt;stroke-linejoin:miter;stroke-miterlimit:10;stroke-dasharray:none;stroke-opacity:0.00779999"
             d="m 213,578 -13,-5 c -9.33333,-3.33331 -22.66667,-6.66669 -40,-10 -17.33333,-3.33331 -36.66666,-5.66669 -58,-7 H 83 v 46 h 19 c 31.33333,1.33331 60.33333,6.33331 87,15 26.66667,8.66669 45.33333,16.66669 56,24 10.66667,7.33331 20,14.66669 28,22 1.33334,2 5.33334,3 12,3 6,0 11.66666,-2 17,-6 V 361 l 1,-300 c 4.66666,-4.666668 8.66666,-7.666668 12,-9 3.33334,-1.333332 11.33334,-2.666668 24,-4 12.66666,-1.333332 33.33334,-2 62,-2 h 26 V 0 H 416 C 402,2 349,3 257,3 166.33333,3 114,2 100,0 H 88 v 46 h 26 c 14.66667,0 27.33333,0 38,0 10.66667,0 19,0.333332 25,1 6,0.666668 11.33333,1.666668 16,3 4.66667,1.333332 7.33333,2 8,2 0.66667,0 2.66667,1.666668 6,5 3.33333,3.333332 5.33333,4.666668 6,4 z" /></g></g></g><g
       id="g1087"><g
         clip-path="url(#clipPath1093)"
         id="g1089"><g
           transform="scale(2.9869475)"
           id="g1095"><text
             id="text1099"
             style="font-variant:normal;font-weight:normal;font-size:12px;font-family:Helvetica;-inkscape-font-specification:Helvetica;writing-mode:lr-tb;fill:#000000;fill-opacity:1;fill-rule:nonzero;stroke:none"
             transform="translate(77.65625,149)"><tspan
               id="tspan1097"
               y="0"
               x="0 8.6660156 15.339844 19.335938">Cart</tspan></text></g></g></g><g
       id="g1101"><g
         clip-path="url(#clipPath1107)"
         id="g1103"><g
           transform="matrix(0.04080065,0,0,-0.04763778,247.91664,504.13416)"
           id="g1109"><path
             id="path1111"
             style="fill:#000000;fill-opacity:1;fill-rule:nonzero;stroke:none"
             d="m 21,287 c 0.666666,4 1.666666,9.33334 3,16 1.333334,6.66666 5.333332,19.33334 12,38 6.666668,18.66666 13.333332,34.33334 20,47 6.666668,12.66666 17.333336,25 32,37 14.66666,12 29.33334,17.66666 44,17 14.66667,-0.66666 29,-3 43,-7 14,-4 24,-10 30,-18 6,-8 11.33333,-15.33334 16,-22 4.66667,-6.66666 7.33333,-13 8,-19 l 2,-7 c 0,-1.33334 0.33333,-2 1,-2 l 11,11 c 40,42.66666 87,64 141,64 11.33334,0 21.66666,-0.66666 31,-2 9.33334,-1.33334 18,-3.66666 26,-7 8,-3.33334 14.33334,-6.66666 19,-10 4.66666,-3.33334 9.66666,-7.33334 15,-12 5.33334,-4.66666 8.66666,-9 10,-13 1.33334,-4 4,-8.33334 8,-13 4,-4.66666 5.33334,-8.66666 4,-12 -1.33334,-3.33334 -0.33334,-6.33334 3,-9 3.33334,-2.66666 4,-5 2,-7 l 8,10 c 42,50 91.66669,75 149,75 36,0 65,-9 87,-27 22,-18 33.33331,-44.33334 34,-79 0,-34 -12.66669,-86.66666 -38,-158 -25.33331,-71.33334 -38,-114 -38,-128 0.66669,-9.333336 2.33331,-15.666668 5,-19 2.66669,-3.333334 7.66669,-5 15,-5 18.66669,0 36,10 52,30 16,20 29,47.33333 39,82 2,7.33333 4,11.66667 6,13 2,1.33333 7.33331,2 16,2 13.33331,0 20,-2.66667 20,-8 0,-0.66667 -1.33331,-5.66667 -4,-15 -5.33331,-19.33334 -12.66669,-38.333328 -22,-57 -9.33331,-18.666668 -24.66669,-37.333332 -46,-56 -21.33331,-18.6666679 -44.33331,-27.666667 -69,-27 -31.33331,0 -54,9 -68,27 -14,18 -21,36.666664 -21,56 0,12.666664 12,52.66666 36,120 24,67.33334 36.33331,118 37,152 0,39.33334 -14.66669,59 -44,59 h -5 C 593.66669,404 545.33331,370.33334 506,303 L 499,291 466,157 C 444,69.666664 431.33334,22.666668 428,16 c -8.66666,-18 -23,-27 -43,-27 -8.66666,0 -15.66666,2.333333 -21,7 -5.33334,4.66666698 -9,8.6666665 -11,12 -2,3.333334 -3,6.666666 -3,10 0,7.333334 11.33334,55 34,143 l 36,146 c 2,10 3,22.66666 3,38 0,39.33334 -14.66666,59 -44,59 h -5 C 316.66666,404 268.33334,370.33334 229,303 L 222,291 189,157 C 167,69.666664 154.33333,22.666668 151,16 c -8.66667,-18 -23,-27 -43,-27 -8.666664,0 -15.666664,2 -21,6 -5.333336,4 -9,8 -11,12 -2,4 -2.666664,7.333333 -2,10 0,8.666668 12.666664,63.333328 38,164 26,102.66669 39,156.33334 39,161 2,10 3,19 3,27 0,24 -8.33333,36 -25,36 -14.66666,0 -27,-9.33334 -37,-28 C 82,358.33334 74.333336,338 69,316 63.666668,294 59.666668,282 57,280 55.666668,278.66666 50.333336,278 41,278 H 27 c -4,4 -6,7 -6,9 z" /><path
             id="path1113"
             style="fill:none;stroke:#000000;stroke-width:1;stroke-linecap:butt;stroke-linejoin:miter;stroke-miterlimit:10;stroke-dasharray:none;stroke-opacity:0.0118"
             d="m 21,287 c 0.666666,4 1.666666,9.33334 3,16 1.333334,6.66666 5.333332,19.33334 12,38 6.666668,18.66666 13.333332,34.33334 20,47 6.666668,12.66666 17.333336,25 32,37 14.66666,12 29.33334,17.66666 44,17 14.66667,-0.66666 29,-3 43,-7 14,-4 24,-10 30,-18 6,-8 11.33333,-15.33334 16,-22 4.66667,-6.66666 7.33333,-13 8,-19 l 2,-7 c 0,-1.33334 0.33333,-2 1,-2 l 11,11 c 40,42.66666 87,64 141,64 11.33334,0 21.66666,-0.66666 31,-2 9.33334,-1.33334 18,-3.66666 26,-7 8,-3.33334 14.33334,-6.66666 19,-10 4.66666,-3.33334 9.66666,-7.33334 15,-12 5.33334,-4.66666 8.66666,-9 10,-13 1.33334,-4 4,-8.33334 8,-13 4,-4.66666 5.33334,-8.66666 4,-12 -1.33334,-3.33334 -0.33334,-6.33334 3,-9 3.33334,-2.66666 4,-5 2,-7 l 8,10 c 42,50 91.66669,75 149,75 36,0 65,-9 87,-27 22,-18 33.33331,-44.33334 34,-79 0,-34 -12.66669,-86.66666 -38,-158 -25.33331,-71.33334 -38,-114 -38,-128 0.66669,-9.333336 2.33331,-15.666668 5,-19 2.66669,-3.333334 7.66669,-5 15,-5 18.66669,0 36,10 52,30 16,20 29,47.33333 39,82 2,7.33333 4,11.66667 6,13 2,1.33333 7.33331,2 16,2 13.33331,0 20,-2.66667 20,-8 0,-0.66667 -1.33331,-5.66667 -4,-15 -5.33331,-19.33334 -12.66669,-38.333328 -22,-57 -9.33331,-18.666668 -24.66669,-37.333332 -46,-56 -21.33331,-18.6666679 -44.33331,-27.666667 -69,-27 -31.33331,0 -54,9 -68,27 -14,18 -21,36.666664 -21,56 0,12.666664 12,52.66666 36,120 24,67.33334 36.33331,118 37,152 0,39.33334 -14.66669,59 -44,59 h -5 C 593.66669,404 545.33331,370.33334 506,303 L 499,291 466,157 C 444,69.666664 431.33334,22.666668 428,16 c -8.66666,-18 -23,-27 -43,-27 -8.66666,0 -15.66666,2.333333 -21,7 -5.33334,4.66666698 -9,8.6666665 -11,12 -2,3.333334 -3,6.666666 -3,10 0,7.333334 11.33334,55 34,143 l 36,146 c 2,10 3,22.66666 3,38 0,39.33334 -14.66666,59 -44,59 h -5 C 316.66666,404 268.33334,370.33334 229,303 L 222,291 189,157 C 167,69.666664 154.33333,22.666668 151,16 c -8.66667,-18 -23,-27 -43,-27 -8.666664,0 -15.666664,2 -21,6 -5.333336,4 -9,8 -11,12 -2,4 -2.666664,7.333333 -2,10 0,8.666668 12.666664,63.333328 38,164 26,102.66669 39,156.33334 39,161 2,10 3,19 3,27 0,24 -8.33333,36 -25,36 -14.66666,0 -27,-9.33334 -37,-28 C 82,358.33334 74.333336,338 69,316 63.666668,294 59.666668,282 57,280 55.666668,278.66666 50.333336,278 41,278 H 27 c -4,4 -6,7 -6,9 z" /></g></g></g></g></svg>
