<?xml version="1.0" encoding="UTF-8" standalone="no"?>
<!-- Created with Inkscape (http://www.inkscape.org/) -->

<svg
   xmlns:dc="http://purl.org/dc/elements/1.1/"
   xmlns:cc="http://creativecommons.org/ns#"
   xmlns:rdf="http://www.w3.org/1999/02/22-rdf-syntax-ns#"
   xmlns:svg="http://www.w3.org/2000/svg"
   xmlns="http://www.w3.org/2000/svg"
   xmlns:sodipodi="http://sodipodi.sourceforge.net/DTD/sodipodi-0.dtd"
   xmlns:inkscape="http://www.inkscape.org/namespaces/inkscape"
   width="97.01606mm"
   height="64.823021mm"
   viewBox="0 0 97.01606 64.823021"
   version="1.1"
   id="svg1015"
   inkscape:version="0.92.4 (5da689c313, 2019-01-14)"
   sodipodi:docname="dompc_var_02_white.svg">
  <defs
     id="defs1009" />
  <sodipodi:namedview
     id="base"
     pagecolor="#ffffff"
     bordercolor="#666666"
     borderopacity="1.0"
     inkscape:pageopacity="0.0"
     inkscape:pageshadow="2"
     inkscape:zoom="1.4"
     inkscape:cx="254.66128"
     inkscape:cy="110.53839"
     inkscape:document-units="mm"
     inkscape:current-layer="layer2"
     showgrid="false"
     inkscape:window-width="1920"
     inkscape:window-height="1004"
     inkscape:window-x="1920"
     inkscape:window-y="0"
     inkscape:window-maximized="1"
     inkscape:snap-text-baseline="false"
     fit-margin-top="0"
     fit-margin-left="0"
     fit-margin-right="0"
     fit-margin-bottom="0" />
  <metadata
     id="metadata1012">
    <rdf:RDF>
      <cc:Work
         rdf:about="">
        <dc:format>image/svg+xml</dc:format>
        <dc:type
           rdf:resource="http://purl.org/dc/dcmitype/StillImage" />
        <dc:title></dc:title>
      </cc:Work>
    </rdf:RDF>
  </metadata>
  <g
     inkscape:groupmode="layer"
     id="layer2"
     inkscape:label="Layer 2"
     transform="translate(-33.911283,-96.767061)" />
  <g
     inkscape:label="Layer 1"
     inkscape:groupmode="layer"
     id="layer1"
     transform="translate(-33.911283,-96.767061)">
    <path
       style="opacity:0.98009997;fill:none;fill-opacity:1;stroke:#fbffff;stroke-width:3;stroke-linecap:square;stroke-linejoin:miter;stroke-miterlimit:4;stroke-dasharray:none;stroke-opacity:1;paint-order:normal"
       d="m 104.68381,133.09513 c 0,2.76736 2.22788,4.99526 4.99524,4.99526 2.76736,0 4.99524,-2.2279 4.99524,-4.99526 v -11.58648 c 0,-2.76736 -2.22788,-5.41485 -4.99524,-5.41485 -2.76736,0 -4.99524,2.64749 -4.99524,5.41485 l 1e-5,12.7006 v 13.48396 c 0,1.46579 -1.18004,2.64583 -2.64583,2.64583 -1.46579,0 -2.64583,-1.18004 -2.645831,-2.64583 l -6e-6,-14.19267 -6e-6,-11.99188 c 0,-2.76737 -2.227879,-5.41486 -4.995241,-5.41486 -2.767369,0 -4.995248,2.64749 -4.995248,5.41486 v 16.58173 l 1e-5,-16.58173 c 2e-6,-2.76737 -2.227881,-5.41486 -4.995241,-5.41486 -2.767369,0 -4.995239,2.64749 -4.99524,5.41486 l -6e-6,16.58173 c -1.69e-4,12.15023 -9.849982,21.99981 -22.000206,21.99969 -12.150024,-1.7e-4 -21.999523,-9.84967 -21.999692,-21.99969 0.0018,-12.11017 9.790425,-21.94179 21.900473,-21.99659 v 6.00015 c -8.796417,0.0545 -15.89894,7.19985 -15.90084,15.99644 -3.2e-5,8.8366 7.163457,16.00009 16.000059,16.00006 8.836601,3e-5 16.000089,-7.16992 16.000054,-16.00006 l -2e-6,-36.82351 c 0,-1.6619 -1.337919,-2.999819 -2.999809,-2.999819 -1.661901,0 -2.999822,1.337919 -2.999822,2.999819 l 3e-6,36.82351 c -5.3e-5,5.52011 -4.477449,10.00014 -10.000424,9.99991 -5.522775,-6e-5 -9.999853,-4.47713 -9.999906,-9.99991 0.0018,-5.48285 4.418107,-9.94179 9.900687,-9.99629"
       id="rect933-2-9"
       inkscape:connector-curvature="0"
       sodipodi:nodetypes="cssssscssscssscsssccccccccssscccc" />
    <path
       style="opacity:0.98999999;fill:none;fill-opacity:1;stroke:#ffffff;stroke-width:3;stroke-linecap:square;stroke-linejoin:miter;stroke-miterlimit:3;stroke-dasharray:none;stroke-opacity:1;paint-order:normal"
       d="m 129.42734,133.09513 c 0,2.76737 -2.22788,4.99526 -4.99525,4.99526 -2.76736,0 -4.99524,-2.22789 -4.99524,-4.99526 v -11.58647 c 0,-2.76737 2.22788,-5.41486 4.99524,-5.41486 2.76737,0 4.99525,2.64749 4.99525,5.41486"
       id="rect933-2-9-1"
       inkscape:connector-curvature="0"
       sodipodi:nodetypes="cssssc" />
    <g
       aria-label="robust optimal control toolbox"
       transform="matrix(0.26458333,0,0,0.26458333,0.70472382,3.3544908)"
       style="font-style:normal;font-weight:normal;font-size:16px;line-height:1.25;font-family:sans-serif;letter-spacing:0px;word-spacing:0px;fill:#ffffff;fill-opacity:0.98039216;stroke:none;stroke-opacity:1"
       id="flowRoot1686">
      <path
         d="m 303.38932,371.82422 q -0.28255,-0.16406 -0.61979,-0.23698 -0.32812,-0.082 -0.72917,-0.082 -1.42187,0 -2.1875,0.92969 -0.75651,0.92057 -0.75651,2.65234 v 5.3776 h -1.68619 v -10.20833 h 1.68619 v 1.58594 q 0.52865,-0.92969 1.37631,-1.3763 0.84765,-0.45573 2.05989,-0.45573 0.17318,0 0.38281,0.0273 0.20964,0.0182 0.46485,0.0638 z"
         style="font-size:18.66666603px;letter-spacing:4px;fill:#ffffff"
         id="path820" />
      <path
         d="m 312.72135,371.43229 q -1.34895,0 -2.13281,1.05729 -0.78385,1.04818 -0.78385,2.88021 0,1.83203 0.77474,2.88932 0.78385,1.04818 2.14192,1.04818 1.33985,0 2.1237,-1.05729 0.78386,-1.05729 0.78386,-2.88021 0,-1.8138 -0.78386,-2.87109 -0.78385,-1.06641 -2.1237,-1.06641 z m 0,-1.42187 q 2.1875,0 3.4362,1.42187 1.2487,1.42188 1.2487,3.9375 0,2.50651 -1.2487,3.9375 -1.2487,1.42188 -3.4362,1.42188 -2.19661,0 -3.44531,-1.42188 -1.23958,-1.43099 -1.23958,-3.9375 0,-2.51562 1.23958,-3.9375 1.2487,-1.42187 3.44531,-1.42187 z"
         style="font-size:18.66666603px;letter-spacing:4px;fill:#ffffff"
         id="path822" />
      <path
         d="m 331.50521,375.36979 q 0,-1.85026 -0.76563,-2.89844 -0.75651,-1.05729 -2.08724,-1.05729 -1.33073,0 -2.09635,1.05729 -0.75651,1.04818 -0.75651,2.89844 0,1.85026 0.75651,2.90755 0.76562,1.04818 2.09635,1.04818 1.33073,0 2.08724,-1.04818 0.76563,-1.05729 0.76563,-2.90755 z m -5.70573,-3.5638 q 0.52864,-0.91146 1.33073,-1.34896 0.8112,-0.44661 1.93229,-0.44661 1.85937,0 3.01693,1.47656 1.16666,1.47656 1.16666,3.88281 0,2.40625 -1.16666,3.88281 -1.15756,1.47657 -3.01693,1.47657 -1.12109,0 -1.93229,-0.4375 -0.80209,-0.44662 -1.33073,-1.35808 v 1.53125 h -1.6862 v -14.18229 h 1.6862 z"
         style="font-size:18.66666603px;letter-spacing:4px;fill:#ffffff"
         id="path824" />
      <path
         d="m 339.85286,376.4362 v -6.17969 h 1.67709 v 6.11589 q 0,1.44921 0.5651,2.17838 0.5651,0.72005 1.69531,0.72005 1.35808,0 2.14193,-0.86588 0.79297,-0.86589 0.79297,-2.36068 v -5.78776 h 1.67708 v 10.20833 h -1.67708 v -1.56771 q -0.61068,0.92969 -1.42188,1.38542 -0.80208,0.44662 -1.86849,0.44662 -1.75911,0 -2.67057,-1.09375 -0.91146,-1.09375 -0.91146,-3.19922 z m 4.22006,-6.42578 z"
         style="font-size:18.66666603px;letter-spacing:4px;fill:#ffffff"
         id="path826" />
      <path
         d="m 362.38281,370.55729 v 1.58594 q -0.71094,-0.36458 -1.47656,-0.54688 -0.76563,-0.18229 -1.58594,-0.18229 -1.2487,0 -1.8776,0.38281 -0.6198,0.38282 -0.6198,1.14844 0,0.58334 0.44662,0.92058 0.44661,0.32812 1.79557,0.6289 l 0.57422,0.12761 q 1.78646,0.38281 2.53385,1.08463 0.75651,0.69271 0.75651,1.94141 0,1.42187 -1.1302,2.2513 -1.1211,0.82943 -3.08985,0.82943 -0.82031,0 -1.71354,-0.16407 -0.88411,-0.15494 -1.86849,-0.47395 v -1.73178 q 0.92969,0.48308 1.83203,0.72917 0.90235,0.23698 1.78646,0.23698 1.1849,0 1.82292,-0.40104 0.63802,-0.41016 0.63802,-1.14844 0,-0.68359 -0.46485,-1.04818 -0.45572,-0.36458 -2.01432,-0.70182 l -0.58333,-0.13672 q -1.5586,-0.32812 -2.2513,-1.0026 -0.69271,-0.6836 -0.69271,-1.86849 0,-1.44011 1.02083,-2.22396 1.02083,-0.78385 2.89844,-0.78385 0.92969,0 1.75,0.13672 0.82031,0.13671 1.51302,0.41015 z"
         style="font-size:18.66666603px;letter-spacing:4px;fill:#ffffff"
         id="path828" />
      <path
         d="m 371.26823,367.35807 v 2.89844 h 3.45442 v 1.30339 h -3.45442 v 5.54166 q 0,1.2487 0.33724,1.60417 0.34635,0.35547 1.39453,0.35547 h 1.72265 v 1.40364 H 373 q -1.94141,0 -2.67969,-0.72005 -0.73828,-0.72917 -0.73828,-2.64323 v -5.54166 h -1.23047 v -1.30339 h 1.23047 v -2.89844 z"
         style="font-size:18.66666603px;letter-spacing:4px;fill:#ffffff"
         id="path830" />
      <path
         d="m 394.83594,371.43229 q -1.34896,0 -2.13282,1.05729 -0.78385,1.04818 -0.78385,2.88021 0,1.83203 0.77474,2.88932 0.78385,1.04818 2.14193,1.04818 1.33984,0 2.1237,-1.05729 0.78385,-1.05729 0.78385,-2.88021 0,-1.8138 -0.78385,-2.87109 -0.78386,-1.06641 -2.1237,-1.06641 z m 0,-1.42187 q 2.1875,0 3.4362,1.42187 1.24869,1.42188 1.24869,3.9375 0,2.50651 -1.24869,3.9375 -1.2487,1.42188 -3.4362,1.42188 -2.19662,0 -3.44532,-1.42188 -1.23958,-1.43099 -1.23958,-3.9375 0,-2.51562 1.23958,-3.9375 1.2487,-1.42187 3.44532,-1.42187 z"
         style="font-size:18.66666603px;letter-spacing:4px;fill:#ffffff"
         id="path832" />
      <path
         d="m 407.91406,378.93359 v 5.41407 h -1.6862 v -14.09115 h 1.6862 v 1.54948 q 0.52864,-0.91146 1.33073,-1.34896 0.81119,-0.44661 1.93229,-0.44661 1.85937,0 3.01693,1.47656 1.16666,1.47656 1.16666,3.88281 0,2.40625 -1.16666,3.88281 -1.15756,1.47657 -3.01693,1.47657 -1.1211,0 -1.93229,-0.4375 -0.80209,-0.44662 -1.33073,-1.35808 z m 5.70573,-3.5638 q 0,-1.85026 -0.76563,-2.89844 -0.75651,-1.05729 -2.08724,-1.05729 -1.33073,0 -2.09635,1.05729 -0.75651,1.04818 -0.75651,2.89844 0,1.85026 0.75651,2.90755 0.76562,1.04818 2.09635,1.04818 1.33073,0 2.08724,-1.04818 0.76563,-1.05729 0.76563,-2.90755 z"
         style="font-size:18.66666603px;letter-spacing:4px;fill:#ffffff"
         id="path834" />
      <path
         d="m 423.79948,367.35807 v 2.89844 h 3.45442 v 1.30339 h -3.45442 v 5.54166 q 0,1.2487 0.33724,1.60417 0.34635,0.35547 1.39453,0.35547 h 1.72265 v 1.40364 h -1.72265 q -1.94141,0 -2.67969,-0.72005 -0.73828,-0.72917 -0.73828,-2.64323 v -5.54166 h -1.23047 v -1.30339 h 1.23047 v -2.89844 z"
         style="font-size:18.66666603px;letter-spacing:4px;fill:#ffffff"
         id="path836" />
      <path
         d="m 433.46874,370.25651 h 1.67708 v 10.20833 h -1.67708 z m 0,-3.97396 h 1.67708 v 2.1237 h -1.67708 z"
         style="font-size:18.66666603px;letter-spacing:4px;fill:#ffffff"
         id="path838" />
      <path
         d="m 450.59375,372.21615 q 0.62891,-1.13021 1.50391,-1.66797 0.875,-0.53776 2.05989,-0.53776 1.59505,0 2.46094,1.12109 0.86588,1.11198 0.86588,3.17188 v 6.16145 h -1.68619 v -6.10677 q 0,-1.46745 -0.51953,-2.17838 -0.51954,-0.71094 -1.58594,-0.71094 -1.30339,0 -2.0599,0.86589 -0.75651,0.86588 -0.75651,2.36067 v 5.76953 h -1.6862 v -6.10677 q 0,-1.47656 -0.51953,-2.17838 -0.51953,-0.71094 -1.60416,-0.71094 -1.28516,0 -2.04167,0.875 -0.75651,0.86589 -0.75651,2.35156 v 5.76953 h -1.6862 v -10.20833 h 1.6862 v 1.58594 q 0.57422,-0.9388 1.3763,-1.38542 0.80208,-0.44661 1.90495,-0.44661 1.11198,0 1.88672,0.5651 0.78385,0.5651 1.15755,1.64063 z"
         style="font-size:18.66666603px;letter-spacing:4px;fill:#ffffff"
         id="path840" />
      <path
         d="m 469.47786,375.33333 q -2.03255,0 -2.81641,0.46485 -0.78385,0.46484 -0.78385,1.58593 0,0.89323 0.58333,1.42188 0.59245,0.51953 1.60417,0.51953 1.39453,0 2.23307,-0.98437 0.84766,-0.99349 0.84766,-2.63412 v -0.3737 z m 3.34505,-0.69271 v 5.82422 h -1.67708 v -1.54948 q -0.57422,0.92969 -1.43099,1.37631 -0.85677,0.4375 -2.09636,0.4375 -1.5677,0 -2.49739,-0.875 -0.92057,-0.88412 -0.92057,-2.36068 0,-1.72266 1.14843,-2.59766 1.15756,-0.875 3.44532,-0.875 h 2.35156 v -0.16406 q 0,-1.15755 -0.76563,-1.78646 -0.75651,-0.63802 -2.13281,-0.63802 -0.875,0 -1.70443,0.20964 -0.82942,0.20963 -1.59505,0.6289 v -1.54948 q 0.92057,-0.35546 1.78646,-0.52864 0.86589,-0.18229 1.6862,-0.18229 2.21484,0 3.30859,1.14843 1.09375,1.14844 1.09375,3.48177 z"
         style="font-size:18.66666603px;letter-spacing:4px;fill:#ffffff"
         id="path842" />
      <path
         d="m 480.28646,366.28255 h 1.67708 v 14.18229 h -1.67708 z"
         style="font-size:18.66666603px;letter-spacing:4px;fill:#ffffff"
         id="path844" />
      <path
         d="m 304.82031,393.98178 v 1.56771 q -0.71094,-0.39193 -1.43099,-0.58333 -0.71093,-0.20053 -1.4401,-0.20053 -1.63151,0 -2.53386,1.03907 -0.90234,1.02995 -0.90234,2.89843 0,1.86849 0.90234,2.90756 0.90235,1.02994 2.53386,1.02994 0.72917,0 1.4401,-0.1914 0.72005,-0.20052 1.43099,-0.59245 v 1.54948 q -0.70182,0.32812 -1.45833,0.49219 -0.7474,0.16406 -1.59505,0.16406 -2.30599,0 -3.66407,-1.44922 -1.35807,-1.44922 -1.35807,-3.91016 0,-2.49739 1.36719,-3.92838 1.3763,-1.43099 3.76432,-1.43099 0.77474,0 1.51302,0.16406 0.73828,0.15495 1.43099,0.47396 z"
         style="font-size:18.66666603px;letter-spacing:4px;fill:#ffffff"
         id="path846" />
      <path
         d="m 315.71094,394.76563 q -1.34896,0 -2.13282,1.0573 -0.78385,1.04817 -0.78385,2.8802 0,1.83204 0.77474,2.88933 0.78385,1.04817 2.14193,1.04817 1.33984,0 2.1237,-1.05729 0.78385,-1.05729 0.78385,-2.88021 0,-1.8138 -0.78385,-2.87109 -0.78386,-1.06641 -2.1237,-1.06641 z m 0,-1.42187 q 2.1875,0 3.4362,1.42187 1.24869,1.42188 1.24869,3.9375 0,2.50652 -1.24869,3.9375 -1.2487,1.42188 -3.4362,1.42188 -2.19662,0 -3.44532,-1.42188 -1.23958,-1.43098 -1.23958,-3.9375 0,-2.51562 1.23958,-3.9375 1.2487,-1.42187 3.44532,-1.42187 z"
         style="font-size:18.66666603px;letter-spacing:4px;fill:#ffffff"
         id="path848" />
      <path
         d="m 335.65234,397.63673 v 6.16146 h -1.67708 v -6.10677 q 0,-1.44922 -0.56511,-2.16927 -0.5651,-0.72006 -1.69531,-0.72006 -1.35807,0 -2.14192,0.86589 -0.78386,0.86588 -0.78386,2.36068 v 5.76953 h -1.6862 v -10.20834 h 1.6862 v 1.58594 q 0.60156,-0.92057 1.41276,-1.3763 0.82031,-0.45573 1.88672,-0.45573 1.75911,0 2.66146,1.09375 0.90234,1.08464 0.90234,3.19922 z"
         style="font-size:18.66666603px;letter-spacing:4px;fill:#ffffff"
         id="path850" />
      <path
         d="m 344.67448,390.69142 v 2.89843 h 3.45442 v 1.30339 h -3.45442 v 5.54167 q 0,1.24869 0.33724,1.60416 0.34635,0.35547 1.39453,0.35547 h 1.72265 v 1.40365 h -1.72265 q -1.94141,0 -2.67969,-0.72006 -0.73828,-0.72916 -0.73828,-2.64322 v -5.54167 h -1.23047 v -1.30339 h 1.23047 v -2.89843 z"
         style="font-size:18.66666603px;letter-spacing:4px;fill:#ffffff"
         id="path852" />
      <path
         d="m 360.25911,395.15756 q -0.28255,-0.16406 -0.61979,-0.23698 -0.32812,-0.082 -0.72917,-0.082 -1.42187,0 -2.1875,0.92969 -0.75651,0.92057 -0.75651,2.65234 v 5.37761 h -1.68619 v -10.20834 h 1.68619 v 1.58594 q 0.52865,-0.92969 1.37631,-1.3763 0.84765,-0.45573 2.05989,-0.45573 0.17318,0 0.38281,0.0273 0.20964,0.0182 0.46485,0.0638 z"
         style="font-size:18.66666603px;letter-spacing:4px;fill:#ffffff"
         id="path854" />
      <path
         d="m 369.59114,394.76563 q -1.34896,0 -2.13281,1.0573 -0.78386,1.04817 -0.78386,2.8802 0,1.83204 0.77474,2.88933 0.78386,1.04817 2.14193,1.04817 1.33984,0 2.1237,-1.05729 0.78385,-1.05729 0.78385,-2.88021 0,-1.8138 -0.78385,-2.87109 -0.78386,-1.06641 -2.1237,-1.06641 z m 0,-1.42187 q 2.1875,0 3.4362,1.42187 1.2487,1.42188 1.2487,3.9375 0,2.50652 -1.2487,3.9375 -1.2487,1.42188 -3.4362,1.42188 -2.19661,0 -3.44531,-1.42188 -1.23959,-1.43098 -1.23959,-3.9375 0,-2.51562 1.23959,-3.9375 1.2487,-1.42187 3.44531,-1.42187 z"
         style="font-size:18.66666603px;letter-spacing:4px;fill:#ffffff"
         id="path856" />
      <path
         d="m 381.04687,389.6159 h 1.67709 v 14.18229 h -1.67709 z"
         style="font-size:18.66666603px;letter-spacing:4px;fill:#ffffff"
         id="path858" />
      <path
         d="m 401.82552,390.69142 v 2.89843 h 3.45442 v 1.30339 h -3.45442 v 5.54167 q 0,1.24869 0.33724,1.60416 0.34635,0.35547 1.39453,0.35547 h 1.72265 v 1.40365 h -1.72265 q -1.94141,0 -2.67969,-0.72006 -0.73828,-0.72916 -0.73828,-2.64322 v -5.54167 h -1.23047 v -1.30339 h 1.23047 v -2.89843 z"
         style="font-size:18.66666603px;letter-spacing:4px;fill:#ffffff"
         id="path860" />
      <path
         d="m 415.45052,394.76563 q -1.34896,0 -2.13282,1.0573 -0.78385,1.04817 -0.78385,2.8802 0,1.83204 0.77474,2.88933 0.78385,1.04817 2.14193,1.04817 1.33984,0 2.12369,-1.05729 0.78386,-1.05729 0.78386,-2.88021 0,-1.8138 -0.78386,-2.87109 -0.78385,-1.06641 -2.12369,-1.06641 z m 0,-1.42187 q 2.1875,0 3.43619,1.42187 1.2487,1.42188 1.2487,3.9375 0,2.50652 -1.2487,3.9375 -1.24869,1.42188 -3.43619,1.42188 -2.19662,0 -3.44532,-1.42188 -1.23958,-1.43098 -1.23958,-3.9375 0,-2.51562 1.23958,-3.9375 1.2487,-1.42187 3.44532,-1.42187 z"
         style="font-size:18.66666603px;letter-spacing:4px;fill:#ffffff"
         id="path862" />
      <path
         d="m 430.86197,394.76563 q -1.34896,0 -2.13281,1.0573 -0.78386,1.04817 -0.78386,2.8802 0,1.83204 0.77474,2.88933 0.78386,1.04817 2.14193,1.04817 1.33984,0 2.1237,-1.05729 0.78385,-1.05729 0.78385,-2.88021 0,-1.8138 -0.78385,-2.87109 -0.78386,-1.06641 -2.1237,-1.06641 z m 0,-1.42187 q 2.1875,0 3.4362,1.42187 1.24869,1.42188 1.24869,3.9375 0,2.50652 -1.24869,3.9375 -1.2487,1.42188 -3.4362,1.42188 -2.19662,0 -3.44531,-1.42188 -1.23959,-1.43098 -1.23959,-3.9375 0,-2.51562 1.23959,-3.9375 1.24869,-1.42187 3.44531,-1.42187 z"
         style="font-size:18.66666603px;letter-spacing:4px;fill:#ffffff"
         id="path864" />
      <path
         d="m 442.31771,389.6159 h 1.67708 v 14.18229 h -1.67708 z"
         style="font-size:18.66666603px;letter-spacing:4px;fill:#ffffff"
         id="path866" />
      <path
         d="m 458.82291,398.70313 q 0,-1.85026 -0.76562,-2.89843 -0.75651,-1.05729 -2.08724,-1.05729 -1.33073,0 -2.09636,1.05729 -0.75651,1.04817 -0.75651,2.89843 0,1.85027 0.75651,2.90756 0.76563,1.04817 2.09636,1.04817 1.33073,0 2.08724,-1.04817 0.76562,-1.05729 0.76562,-2.90756 z m -5.70573,-3.5638 q 0.52865,-0.91146 1.33073,-1.34896 0.8112,-0.44661 1.93229,-0.44661 1.85938,0 3.01693,1.47656 1.16667,1.47656 1.16667,3.88281 0,2.40625 -1.16667,3.88282 -1.15755,1.47656 -3.01693,1.47656 -1.12109,0 -1.93229,-0.4375 -0.80208,-0.44661 -1.33073,-1.35807 v 1.53125 h -1.6862 V 389.6159 h 1.6862 z"
         style="font-size:18.66666603px;letter-spacing:4px;fill:#ffffff"
         id="path868" />
      <path
         d="m 471.29947,394.76563 q -1.34896,0 -2.13281,1.0573 -0.78386,1.04817 -0.78386,2.8802 0,1.83204 0.77474,2.88933 0.78386,1.04817 2.14193,1.04817 1.33984,0 2.1237,-1.05729 0.78385,-1.05729 0.78385,-2.88021 0,-1.8138 -0.78385,-2.87109 -0.78386,-1.06641 -2.1237,-1.06641 z m 0,-1.42187 q 2.1875,0 3.4362,1.42187 1.24869,1.42188 1.24869,3.9375 0,2.50652 -1.24869,3.9375 -1.2487,1.42188 -3.4362,1.42188 -2.19662,0 -3.44531,-1.42188 -1.23959,-1.43098 -1.23959,-3.9375 0,-2.51562 1.23959,-3.9375 1.24869,-1.42187 3.44531,-1.42187 z"
         style="font-size:18.66666603px;letter-spacing:4px;fill:#ffffff"
         id="path870" />
      <path
         d="m 490.65754,393.58985 -3.6914,4.96745 3.88281,5.24089 h -1.97787 l -2.97135,-4.01042 -2.97135,4.01042 h -1.97787 l 3.96484,-5.34115 -3.6276,-4.86719 h 1.97786 l 2.70704,3.63672 2.70703,-3.63672 z"
         style="font-size:18.66666603px;letter-spacing:4px;fill:#ffffff"
         id="path872" />
    </g>
  </g>
</svg>
